<svg width="589" height="435" viewBox="0 0 589 435" fill="none" xmlns="http://www.w3.org/2000/svg">
<g clip-path="url(#clip0)">
<path opacity="0.1" d="M38.5501 170.497H89.7416V240.234H42.2931C42.172 240.955 42.0509 241.671 41.9147 242.392H89.7416V298.622C89.6609 298.622 89.5802 298.562 89.5045 298.532C88.1593 297.997 86.8141 297.431 85.4689 296.833C85.1814 296.702 84.8989 296.565 84.6063 296.439C83.2611 295.804 81.9159 295.132 80.5707 294.423C80.1016 294.176 79.6324 293.919 79.1734 293.657C71.7053 289.492 64.9179 284.212 59.0458 277.998C58.8693 277.832 58.7079 277.65 58.5414 277.494C57.7242 276.607 56.9221 275.71 56.1453 274.792C55.8527 274.454 55.5702 274.111 55.2827 273.784C54.3646 272.665 53.4767 271.505 52.6192 270.341C52.488 270.164 52.3669 269.993 52.2408 269.836C48.7278 264.978 45.8146 259.714 43.5643 254.158C43.4937 253.992 43.4281 253.81 43.3625 253.654C42.6664 251.889 42.0358 250.1 41.491 248.275C41.259 247.513 41.032 246.762 40.8403 245.971C40.7696 245.744 40.7142 245.512 40.6536 245.285C37.8186 234.119 37.4907 222.514 37.4907 210.964C37.4907 209.62 37.4907 208.275 37.4907 206.931C37.5311 202.216 37.5866 197.505 37.6572 192.8C37.6841 191.59 37.7093 190.375 37.7329 189.155C37.8035 186.067 37.9044 182.971 38.0355 179.869C38.0658 179.012 38.1062 178.15 38.1516 177.298C38.1717 176.804 38.197 176.31 38.2272 175.816C38.318 174.031 38.4256 172.258 38.5501 170.497Z" fill="#348C6C"/>
<path opacity="0.1" d="M89.7415 92.851H61.6588C66.2259 85.715 71.2136 78.8568 76.5956 72.3127C80.7724 67.1907 85.1712 62.1998 89.7415 57.3904V92.851Z" fill="#348C6C"/>
<path opacity="0.1" d="M89.7415 94.9985V168.34H38.7114C38.7114 168.128 38.7417 167.911 38.7619 167.699C38.8073 167.12 38.8527 166.545 38.9031 165.965C38.9536 165.29 39.0191 164.614 39.0847 163.949C39.1503 163.283 39.2159 162.477 39.2966 161.746C39.3773 161.015 39.4429 160.273 39.5236 159.543C39.6043 158.812 39.685 158.081 39.7758 157.355C39.8666 156.629 39.9473 155.893 40.0482 155.167C40.1239 154.567 40.1995 153.962 40.2853 153.357C40.4013 152.505 40.5224 151.653 40.6485 150.806C40.6485 150.675 40.6889 150.549 40.709 150.423C41.631 144.223 42.8838 138.078 44.4621 132.012C46.1196 125.65 48.2354 119.416 50.793 113.359C53.5106 107.013 56.694 100.876 60.317 94.9985H89.7415Z" fill="#348C6C"/>
<path opacity="0.1" d="M101.969 170.497V240.234H211.314V170.497H101.969ZM101.969 242.391V302.282C102.595 302.408 103.21 302.534 103.831 302.64C104.663 302.802 105.501 302.948 106.353 303.074L106.857 303.144C107.19 303.2 107.528 303.245 107.866 303.286C108.709 303.407 109.551 303.497 110.389 303.578C110.782 303.618 111.191 303.648 111.589 303.684L112.563 303.754C113.092 303.795 113.617 303.825 114.142 303.845C114.465 303.845 114.787 303.87 115.115 303.88C115.443 303.891 115.62 303.88 115.882 303.88H116.835C117.269 303.88 117.703 303.88 118.132 303.88H118.687C119.121 303.88 119.554 303.88 119.983 303.84H120.008C120.311 303.84 120.609 303.84 120.911 303.805C120.997 303.81 121.083 303.81 121.169 303.805C121.421 303.805 121.673 303.805 121.915 303.775C121.972 303.77 122.03 303.77 122.087 303.775C122.647 303.739 123.212 303.694 123.782 303.643C124.352 303.593 124.892 303.533 125.462 303.472L126.607 303.331C131.286 302.676 135.913 301.692 140.454 300.387C150.659 297.543 160.632 293.566 170.832 290.657C184.008 286.901 198.576 285.051 211.309 289.624V242.391H101.969ZM211.314 92.851V0.0100849C199.344 -0.12153 187.406 1.27615 175.79 4.16917C148.101 11.1211 123.237 26.1997 101.969 45.4575V92.8459H107.473V94.9986H101.969V168.34H211.314V94.9986H129.986V92.8409L211.314 92.851ZM351.793 61.4889C344.942 61.2469 338.132 59.0842 331.968 55.7317C320.194 49.3343 310.781 39.4433 300.268 31.1049C278.426 13.7275 251.337 3.23653 223.547 0.635208V92.851H379.628L380.017 92.4426L351.793 61.4889ZM366.013 58.9683L381.091 75.5088V54.6176C376.016 55.2579 371.598 56.7451 366.013 58.9481V58.9683ZM381.091 317.154V242.391H348.938C348.857 242.074 348.766 241.751 348.665 241.429C348.761 241.751 348.847 242.074 348.933 242.391H223.547V296.455C224.737 297.337 225.913 298.269 227.078 299.207C228.336 300.236 229.585 301.276 230.826 302.328L232.077 303.361C232.677 303.865 233.288 304.369 233.893 304.848C235.107 305.826 236.329 306.794 237.56 307.752C238.176 308.236 238.795 308.712 239.417 309.179C249.27 316.704 259.662 323.496 270.511 329.5C272.942 330.856 275.399 332.162 277.871 333.438C279.515 334.285 281.172 335.115 282.84 335.928C285.342 337.148 287.864 338.324 290.406 339.457C313.846 349.972 338.632 357.186 364.056 360.893C369.699 361.723 375.367 362.378 381.061 362.859V317.144H381.565L381.091 317.154ZM223.547 94.9986V168.34H381.091V94.9986H223.547ZM223.547 170.487V240.234H381.091V170.497L223.547 170.487ZM393.319 54.5168V77.8581L412.559 56.7501C406.183 55.6981 399.769 54.9537 393.319 54.5168ZM393.319 170.497V240.234H546.546V170.497H393.319ZM546.006 322.685L546.546 242.391H393.319V363.67C403.189 364.081 413.073 363.961 422.93 363.312H423.102C427.81 363.01 432.496 362.58 437.161 362.022H437.267C462.159 359.126 486.498 352.629 509.519 342.734L546.006 322.685ZM576.106 181.951C575.525 180.607 574.928 179.262 574.316 177.918C573.175 175.397 571.975 172.947 570.734 170.502H558.779V240.234H589C588.975 220.482 583.971 200.317 576.106 181.951ZM558.779 242.391V311.457C567.289 303.306 574.487 293.974 579.663 283.307C585.893 270.457 588.743 256.553 588.98 242.386L558.779 242.391ZM558.779 150.176V168.324H569.614C566.329 162.086 562.712 156.027 558.779 150.176ZM454.862 68.204C454.065 67.8964 453.263 67.5889 452.461 67.2965C444.004 64.173 435.361 61.5768 426.582 59.5228L397.133 91.8175L396.558 92.4376L396.936 92.8459H501.75C487.152 82.8067 471.412 74.5348 454.862 68.204ZM504.828 94.9986H395.468L393.319 96.9596V168.34H412.16H546.546V133.756C534.394 119.071 520.369 106.04 504.828 94.9986Z" fill="#348C6C"/>
<path opacity="0.1" d="M89.7415 131.997V168.34H38.7114C38.7114 168.128 38.7417 167.911 38.7619 167.699C38.8073 167.12 38.8527 166.545 38.9031 165.965C38.9536 165.29 39.0191 164.614 39.0847 163.949C39.1503 163.283 39.2159 162.476 39.2966 161.745C39.3773 161.014 39.4429 160.273 39.5236 159.542C39.6043 158.811 39.685 158.08 39.7758 157.355C39.8666 156.629 39.9473 155.893 40.0482 155.167C40.1239 154.567 40.1995 153.962 40.2853 153.357C40.4013 152.505 40.5224 151.653 40.6485 150.806C40.6485 150.675 40.6889 150.549 40.709 150.423C41.631 144.223 42.8838 138.078 44.4621 132.012L89.7415 131.997Z" fill="#348C6C"/>
<path opacity="0.1" d="M38.5501 170.497H89.7416V240.234H42.2931C42.172 240.955 42.0509 241.671 41.9147 242.392H89.7416V298.622C89.6609 298.622 89.5802 298.562 89.5045 298.532C88.1593 297.997 86.8141 297.431 85.4689 296.833C85.1814 296.702 84.8989 296.565 84.6063 296.439C83.2611 295.804 81.9159 295.132 80.5707 294.423C80.1016 294.176 79.6324 293.919 79.1734 293.657C71.7053 289.492 64.9179 284.212 59.0458 277.998C58.8693 277.832 58.7079 277.65 58.5414 277.494C57.7242 276.607 56.9221 275.71 56.1453 274.792C55.8527 274.454 55.5702 274.111 55.2827 273.784C54.3646 272.665 53.4767 271.505 52.6192 270.341C52.488 270.164 52.3669 269.993 52.2408 269.836C48.7278 264.978 45.8146 259.714 43.5643 254.158C43.4937 253.992 43.4281 253.81 43.3625 253.654C42.6664 251.889 42.0358 250.1 41.491 248.275C41.259 247.513 41.032 246.762 40.8403 245.971C40.7696 245.744 40.7142 245.512 40.6536 245.285C37.8186 234.119 37.4907 222.514 37.4907 210.964C37.4907 209.62 37.4907 208.275 37.4907 206.931C37.5311 202.216 37.5866 197.505 37.6572 192.8C37.6841 191.59 37.7093 190.375 37.7329 189.155C37.8035 186.067 37.9044 182.971 38.0355 179.869C38.0658 179.012 38.1062 178.15 38.1516 177.298C38.1717 176.804 38.197 176.31 38.2272 175.816C38.318 174.031 38.4256 172.258 38.5501 170.497Z" fill="#348C6C"/>
<path opacity="0.1" d="M140.459 105.505V168.34H101.964V105.505H107.453V84.2303H129.981V105.505H140.459Z" fill="#348C6C"/>
<path opacity="0.1" d="M140.454 170.492H101.964V240.229H140.454V170.492Z" fill="#348C6C"/>
<path opacity="0.1" d="M101.969 242.391H140.459V300.367C135.919 301.673 131.291 302.655 126.612 303.306C126.228 303.361 125.85 303.407 125.467 303.447C124.902 303.512 124.342 303.573 123.782 303.623L122.092 303.759H121.92L121.174 303.8H120.916C120.614 303.8 120.316 303.835 120.014 303.84H119.988C119.554 303.84 119.126 303.87 118.692 303.88H118.137C117.708 303.88 117.279 303.88 116.841 303.88H115.892H115.12C114.792 303.88 114.47 303.88 114.142 303.84C113.624 303.82 113.099 303.79 112.568 303.749L111.594 303.679C111.191 303.649 110.787 303.608 110.389 303.568C109.541 303.494 108.7 303.398 107.866 303.281L106.857 303.139L106.353 303.069C105.511 302.943 104.673 302.802 103.831 302.64C103.205 302.529 102.59 302.403 101.969 302.272V242.391Z" fill="#348C6C"/>
<path opacity="0.1" d="M381.086 98.0839H349.346V168.335H381.086V98.0839Z" fill="#348C6C"/>
<path opacity="0.1" d="M381.091 170.492V240.234H223.547V210.152H307.462V227.898H349.346V170.492H381.091Z" fill="#348C6C"/>
<path opacity="0.1" d="M381.591 317.169C381.424 317.169 381.258 317.169 381.086 317.139V362.889C375.399 362.422 369.733 361.768 364.086 360.928C338.654 357.223 313.858 350.012 290.406 339.502C283.637 336.451 277.005 333.125 270.511 329.526C259.666 323.519 249.275 316.727 239.422 309.204C236.94 307.309 234.495 305.371 232.087 303.391C230.417 302.01 228.763 300.599 227.078 299.232C225.918 298.29 224.742 297.357 223.547 296.47V242.391H348.933C348.842 242.069 348.761 241.751 348.67 241.429C348.766 241.751 348.857 242.069 348.938 242.391H381.091V317.134C381.258 317.139 381.424 317.154 381.591 317.169Z" fill="#348C6C"/>
<path opacity="0.1" d="M463.871 92.8509H443.189V86.4283H452.456V67.2965C453.259 67.5923 454.06 67.8947 454.857 68.2039V86.4283H463.866L463.871 92.8509Z" fill="#348C6C"/>
<path opacity="0.1" d="M513.706 168.34H412.16C412.17 168.342 412.181 168.342 412.191 168.34H412.145H393.319V98.0889H398.656V150.014H423.041V119.262H443.194V94.9985H463.876V119.278H484.019V150.03H513.711L513.706 168.34Z" fill="#348C6C"/>
<path opacity="0.1" d="M393.319 170.497V240.234H513.711V170.497H393.319ZM546.374 322.316L546.546 267.114H513.711V242.412H393.319V363.67C403.189 364.081 413.073 363.961 422.93 363.312H423.102C427.81 363.01 432.496 362.58 437.161 362.022H437.267C462.159 359.126 486.498 352.629 509.519 342.734" fill="#348C6C"/>
<path opacity="0.1" d="M560.897 242.391H588.98C588.738 256.553 585.893 270.462 579.663 283.307C574.487 293.979 567.289 303.311 558.779 311.463V267.099H560.897V242.391Z" fill="#348C6C"/>
<path opacity="0.1" d="M589 240.234H560.897V181.951H576.106C583.971 200.317 588.975 220.482 589 240.234Z" fill="#348C6C"/>
<path opacity="0.1" d="M381.091 117.614H364.086V139.639H381.091V117.614Z" fill="#348C6C"/>
<path opacity="0.1" d="M381.091 163.268H364.086V168.34H381.091V163.268Z" fill="#348C6C"/>
<path opacity="0.1" d="M381.091 170.492H364.086V185.289H381.091V170.492Z" fill="#348C6C"/>
<path opacity="0.1" d="M381.091 208.922H364.086V230.948H381.091V208.922Z" fill="#348C6C"/>
<path opacity="0.1" d="M381.091 254.576H364.086V276.602H381.091V254.576Z" fill="#348C6C"/>
<path opacity="0.1" d="M381.091 317.134C381.258 317.134 381.424 317.134 381.596 317.169C381.429 317.169 381.263 317.169 381.091 317.139V322.256H364.086V300.23H381.091V317.134Z" fill="#348C6C"/>
<path opacity="0.1" d="M381.091 345.88V362.889C375.401 362.422 369.733 361.768 364.086 360.928V345.88H381.091Z" fill="#348C6C"/>
<path opacity="0.1" d="M296.424 238.615H223.547V240.234H296.424V238.615Z" fill="#348C6C"/>
<path opacity="0.1" d="M296.424 242.386H223.547V248.587H296.424V242.386Z" fill="#348C6C"/>
<path opacity="0.1" d="M296.424 268.914H223.547V278.886H296.424V268.914Z" fill="#348C6C"/>
<path opacity="0.1" d="M296.425 299.212V309.184H239.422C236.94 307.295 234.495 305.356 232.087 303.366C230.412 301.99 228.758 300.578 227.078 299.212H296.425Z" fill="#348C6C"/>
<path opacity="0.1" d="M296.425 329.505V339.502H290.406C283.637 336.451 277.005 333.125 270.511 329.526L296.425 329.505Z" fill="#348C6C"/>
<path opacity="0.1" d="M437.277 177.253H422.93V191.59H437.277V177.253Z" fill="#348C6C"/>
<path opacity="0.1" d="M126.647 110.45H112.301V124.788H126.647V110.45Z" fill="#348C6C"/>
<path opacity="0.1" d="M126.647 143.753H112.301V158.091H126.647V143.753Z" fill="#348C6C"/>
<path opacity="0.1" d="M126.647 177.056H112.301V191.394H126.647V177.056Z" fill="#348C6C"/>
<path opacity="0.1" d="M126.647 210.354H112.301V224.692H126.647V210.354Z" fill="#348C6C"/>
<path opacity="0.1" d="M126.647 243.657H112.301V257.994H126.647V243.657Z" fill="#348C6C"/>
<path opacity="0.1" d="M126.647 276.96H112.301V291.297H126.647V276.96Z" fill="#348C6C"/>
<path opacity="0.1" d="M492.045 177.253H477.698V191.59H492.045V177.253Z" fill="#348C6C"/>
<path opacity="0.1" d="M437.277 212.617H422.93V226.955H437.277V212.617Z" fill="#348C6C"/>
<path opacity="0.1" d="M492.045 212.617H477.698V226.955H492.045V212.617Z" fill="#348C6C"/>
<path opacity="0.1" d="M437.277 247.977H422.93V262.315H437.277V247.977Z" fill="#348C6C"/>
<path opacity="0.1" d="M492.045 247.977H477.698V262.315H492.045V247.977Z" fill="#348C6C"/>
<path opacity="0.1" d="M437.277 283.342H422.93V297.68H437.277V283.342Z" fill="#348C6C"/>
<path opacity="0.1" d="M492.045 283.342H477.698V297.68H492.045V283.342Z" fill="#348C6C"/>
<path opacity="0.1" d="M437.277 318.707H422.93V333.044H437.277V318.707Z" fill="#348C6C"/>
<path opacity="0.1" d="M492.045 318.707H477.698V333.044H492.045V318.707Z" fill="#348C6C"/>
<path opacity="0.1" d="M422.93 363.312V354.067H437.272V361.997L422.93 363.312Z" fill="#348C6C"/>
<path opacity="0.1" d="M40.6486 150.408V158.61H89.7416V150.408H40.6486ZM45.5367 158.096H41.5011V150.927H45.5367V158.096ZM50.4248 158.096H46.3892V150.927H50.4248V158.096ZM55.3028 158.096H51.2672V150.927H55.3028V158.096ZM60.1909 158.096H56.1553V150.927H60.1909V158.096ZM65.074 158.096H61.0384V150.927H65.074V158.096ZM69.9621 158.096H65.9265V150.927H69.9621V158.096ZM74.8502 158.096H70.8146V150.927H74.8502V158.096ZM79.7333 158.096H75.6977V150.927H79.7333V158.096ZM84.6164 158.096H80.5808V150.927H84.6164V158.096ZM89.5045 158.096H85.4689V150.927H89.5045V158.096Z" fill="#348C6C"/>
<path opacity="0.1" d="M40.6486 174.283V182.486H89.7416V174.283H40.6486ZM45.5367 181.971H41.5011V174.803H45.5367V181.971ZM50.4248 181.971H46.3892V174.803H50.4248V181.971ZM55.3028 181.971H51.2672V174.803H55.3028V181.971ZM60.1909 181.971H56.1553V174.803H60.1909V181.971ZM65.074 181.971H61.0384V174.803H65.074V181.971ZM69.9621 181.971H65.9265V174.803H69.9621V181.971ZM74.8502 181.971H70.8146V174.803H74.8502V181.971ZM79.7333 181.971H75.6977V174.803H79.7333V181.971ZM84.6164 181.971H80.5808V174.803H84.6164V181.971ZM89.5045 181.971H85.4689V174.803H89.5045V181.971Z" fill="#348C6C"/>
<path opacity="0.1" d="M40.6486 198.164V206.361H89.7416V198.164H40.6486ZM45.5367 205.842H41.5011V198.673H45.5367V205.842ZM50.4248 205.842H46.3892V198.673H50.4248V205.842ZM55.3028 205.842H51.2672V198.673H55.3028V205.842ZM60.1909 205.842H56.1553V198.673H60.1909V205.842ZM65.074 205.842H61.0384V198.673H65.074V205.842ZM69.9621 205.842H65.9265V198.673H69.9621V205.842ZM74.8502 205.842H70.8146V198.673H74.8502V205.842ZM79.7333 205.842H75.6977V198.673H79.7333V205.842ZM84.6164 205.842H80.5808V198.673H84.6164V205.842ZM89.5045 205.842H85.4689V198.673H89.5045V205.842Z" fill="#348C6C"/>
<path opacity="0.1" d="M40.6486 222.04V230.237H89.7416V222.04H40.6486ZM45.5367 229.723H41.5011V222.544H45.5367V229.723ZM50.4248 229.723H46.3892V222.544H50.4248V229.723ZM55.3028 229.723H51.2672V222.544H55.3028V229.723ZM60.1909 229.723H56.1553V222.544H60.1909V229.723ZM65.074 229.723H61.0384V222.544H65.074V229.723ZM69.9621 229.723H65.9265V222.544H69.9621V229.723ZM74.8502 229.723H70.8146V222.544H74.8502V229.723ZM79.7333 229.723H75.6977V222.544H79.7333V229.723ZM84.6164 229.723H80.5808V222.544H84.6164V229.723ZM89.5045 229.723H85.4689V222.544H89.5045V229.723Z" fill="#348C6C"/>
<path opacity="0.1" d="M40.8856 245.905C41.0773 246.682 41.3043 247.448 41.5364 248.209V246.425H45.572V253.588H43.4079C43.4684 253.76 43.534 253.936 43.6046 254.092H89.7617V245.905H40.8856ZM50.4702 253.588H46.4346V246.425H50.4702V253.588ZM55.3482 253.588H51.3126V246.425H55.3482V253.588ZM60.2363 253.588H56.2007V246.425H60.2363V253.588ZM65.1194 253.588H61.0838V246.425H65.1194V253.588ZM70.0075 253.588H65.9719V246.425H70.0075V253.588ZM74.8956 253.588H70.86V246.425H74.8956V253.588ZM79.7787 253.588H75.7431V246.425H79.7787V253.588ZM84.6617 253.588H80.6261V246.425H84.6617V253.588ZM89.5498 253.588H85.5143V246.425H89.5498V253.588Z" fill="#348C6C"/>
<path opacity="0.1" d="M52.2559 269.781C52.387 269.942 52.5081 270.124 52.6342 270.285H55.3027V273.728L56.1653 274.737V270.265H60.2009V277.494H58.5413C58.7027 277.661 58.8591 277.837 59.0457 277.998H89.7314V269.781H52.2559ZM65.0991 277.494H61.0635V270.295H65.0991V277.494ZM69.9873 277.494H65.9517V270.295H69.9873V277.494ZM74.8754 277.494H70.8398V270.295H74.8754V277.494ZM79.7584 277.494H75.7228V270.295H79.7584V277.494ZM84.6415 277.494H80.6059V270.295H84.6415V277.494ZM89.5296 277.494H85.494V270.295H89.5296V277.494Z" fill="#348C6C"/>
<path opacity="0.1" d="M79.1885 293.657C79.6526 293.919 80.1217 294.161 80.5909 294.418V294.166H84.6265V296.439C84.919 296.565 85.1965 296.702 85.484 296.833V294.166H89.5196V298.532C89.5963 298.566 89.6756 298.595 89.7567 298.617V293.657H79.1885Z" fill="#348C6C"/>
<path opacity="0.1" d="M381.086 317.134H381.591H381.086ZM348.665 241.429C348.761 241.751 348.847 242.074 348.933 242.391C348.857 242.074 348.766 241.751 348.665 241.429ZM107.473 92.8509V94.9985H130.007V92.8408L107.473 92.8509ZM381.091 317.134H381.596H381.091ZM348.665 241.429C348.761 241.751 348.847 242.074 348.933 242.391C348.857 242.074 348.766 241.751 348.665 241.429ZM381.086 317.134H381.591H381.086ZM348.665 241.429C348.761 241.751 348.847 242.074 348.933 242.391C348.857 242.074 348.766 241.751 348.665 241.429Z" fill="#348C6C"/>
<path opacity="0.1" d="M443.628 435C470.775 435 492.781 431.468 492.781 427.11C492.781 422.753 470.775 419.221 443.628 419.221C416.481 419.221 394.474 422.753 394.474 427.11C394.474 431.468 416.481 435 443.628 435Z" fill="#348C6C"/>
<path opacity="0.1" d="M221.943 427.11C249.089 427.11 271.096 423.578 271.096 419.221C271.096 414.863 249.089 411.331 221.943 411.331C194.796 411.331 172.789 414.863 172.789 419.221C172.789 423.578 194.796 427.11 221.943 427.11Z" fill="#348C6C"/>
<path d="M278.532 210.601C278.52 210.551 278.493 210.505 278.456 210.47C277.704 209.729 268.12 196.183 268.12 196.183C268.12 196.183 267.615 194.67 266.798 192.704C267.06 192.365 267.257 191.981 267.378 191.57C267.422 191.396 267.455 191.219 267.474 191.041C267.474 190.985 267.515 190.94 267.53 190.884C267.705 190.201 267.687 189.482 267.479 188.807C267.423 188.98 267.354 189.149 267.272 189.311C267.083 188.724 266.829 188.16 266.516 187.628C265.245 185.44 263.429 183.595 262.092 181.462C260.068 178.149 259.263 174.234 259.817 170.391C259.817 170.588 259.817 170.79 259.817 170.986C259.867 170.224 259.968 169.466 260.119 168.718C260.33 167.866 260.612 167.033 260.962 166.227C262.162 163.48 264.105 161.085 265.285 158.328C265.681 157.397 265.982 156.43 266.183 155.439C266.599 153.784 266.75 152.074 266.632 150.372C266.632 150.776 266.566 151.179 266.506 151.577C266.378 147.485 264.725 143.589 261.87 140.653C257.748 136.514 251.831 134.906 246.171 134.059C243.793 133.781 241.521 132.915 239.563 131.538C237.389 130.131 234.579 129.794 232.037 130.101C229.115 130.417 226.399 131.759 224.374 133.887C221.685 136.841 220.52 141.026 217.382 143.516C215.481 145.029 213.069 145.734 210.855 146.763C208.64 147.791 206.547 149.283 205.836 151.492C205.836 151.492 205.836 151.461 205.836 151.446V151.572L205.805 151.653C205.069 154.264 206.491 156.921 207.233 159.527C208.005 162.224 208.055 165.073 208.095 167.861C208.151 171.269 208.201 174.682 208.146 178.095C208.121 179.436 208.075 180.792 207.974 182.128C206.78 182.488 205.621 182.954 204.509 183.519C203.379 184.255 199.152 188.817 199.152 188.817L190.884 220.386L190.995 220.512L190.884 220.941L191.302 220.845C192.473 222.105 195.969 225.695 199.742 227.933L200.095 234.124C200.095 234.124 200.519 240.335 206.234 242.901C206.365 245.053 206.774 253.795 204.882 257.258C203.572 259.789 202.956 262.62 203.096 265.466C203.096 265.466 203.757 270.719 203.006 273.481C202.566 275.328 202.534 277.247 202.91 279.107C202.91 279.107 202.91 279.717 202.91 280.766C202.91 286.357 202.975 304.274 202.91 306.3C202.814 308.695 202.91 344.11 202.91 344.11C202.91 344.11 202.441 361.81 200.937 366.604C199.434 371.399 199.812 387.274 199.812 387.274C199.812 387.274 198.869 406.184 202.204 409.914C202.204 410.081 202.173 410.252 202.168 410.419C202.168 410.494 202.168 410.58 202.168 410.656C202.128 412.092 202.405 413.62 203.641 414.089C206.163 415.057 209.498 417.96 210.128 418.792C210.759 419.624 214.426 421.696 219.208 421.141C222.204 420.805 225.219 420.667 228.233 420.728C228.233 420.728 230.12 420.385 229.509 418.041C229.116 416.579 227.643 414.331 226.594 412.854C226.785 412.904 226.972 412.944 227.149 412.98L227.33 413.015H227.471C227.549 413.02 227.626 413.02 227.703 413.015H227.804C227.898 413.023 227.993 413.023 228.087 413.015C229.353 412.894 234.075 415.092 234.917 416.544C235.759 417.996 238.731 419.1 240.97 419.377C242.302 419.538 245.662 419.266 248.482 418.903C249.902 418.757 251.308 418.5 252.689 418.137C253.355 417.885 253.496 417.078 253.304 416.171C253.078 415.018 252.461 413.979 251.559 413.227C250.742 412.647 249.662 411.119 248.865 409.869L248.653 409.531C250.061 408.19 252.603 403.804 253.375 402.897C254.313 401.793 251.861 361.417 251.861 361.417V341.176L255.62 322.019L258.248 311.881L260.503 296.576C260.503 296.576 264.448 278.699 263.232 276.945C263.232 276.909 262.223 258.504 261.164 254.082C260.704 252.111 260.821 247.675 261.093 243.359C261.378 243.077 261.576 242.719 261.665 242.328C261.755 241.938 261.731 241.529 261.597 241.151C261.522 240.893 261.424 240.642 261.305 240.4C261.305 240.325 261.305 240.244 261.305 240.168C263.484 239.166 265.761 238.392 268.1 237.859C271.858 237.123 270.92 235.187 270.92 235.187C270.92 235.187 271.767 233.529 272.327 232.516C272.887 231.502 272.423 222.559 272.327 221.823C272.292 221.525 272.06 219.882 271.792 218.017C272.998 217.16 274.567 216.096 276.277 215.088C279.531 213.162 278.799 211.13 278.532 210.601ZM229.499 338.413C229.499 338.413 226.679 345.602 227.809 347.442C228.939 349.283 227.623 356.114 227.623 356.114L226.679 366.252C226.679 366.252 224.051 385.056 224.989 389.477C225.726 392.945 225.998 403.305 226.084 407.626C226.02 407.651 225.957 407.681 225.898 407.716L225.771 407.782C226.205 406.083 226.024 402.645 223.87 395.728L223.688 367.159C223.688 367.159 223.355 334.159 225.963 330.468C228.571 326.778 229.494 320.512 229.494 320.512C229.494 320.512 228.929 329.551 228.561 331.945C228.193 334.34 229.499 338.413 229.499 338.413ZM224.248 409.425C224.223 409.486 224.192 409.546 224.172 409.602L224.031 409.42C224.103 409.427 224.176 409.429 224.248 409.425Z" fill="url(#paint0_linear)"/>
<path d="M253.007 420.748C251.549 421.308 243.644 422.261 241.434 421.993C239.225 421.726 236.299 420.607 235.467 419.145C234.634 417.683 229.968 415.475 228.717 415.616C228.204 415.632 227.693 415.56 227.204 415.404C226.341 415.143 225.498 414.82 224.682 414.436C224.568 413.801 224.587 413.149 224.737 412.521C224.766 412.394 224.803 412.27 224.848 412.148C225.143 411.321 225.752 410.643 226.543 410.262L226.725 410.177C227.074 410.026 227.44 409.914 227.814 409.844C231.779 409.083 248.139 410.61 248.139 410.61C248.139 410.61 248.598 411.432 249.228 412.45C250.015 413.711 251.085 415.248 251.892 415.828C252.786 416.592 253.393 417.637 253.612 418.792C253.804 419.684 253.662 420.501 253.007 420.748Z" fill="white"/>
<path opacity="0.1" d="M253.006 420.748C251.549 421.308 243.649 422.261 241.439 421.993C239.23 421.726 236.304 420.602 235.467 419.145C234.629 417.688 229.973 415.475 228.722 415.616C227.471 415.757 224.687 414.437 224.687 414.437C224.687 414.437 224.253 412.42 225.514 411.044L228.036 412.833C228.036 412.833 234.786 414.926 236.037 416.866C237.288 418.807 239.568 419.891 242.862 420.088C245.324 420.249 250.979 419.291 253.627 418.812C253.804 419.685 253.667 420.501 253.006 420.748Z" fill="black"/>
<path d="M228.859 423.319C225.883 423.261 222.907 423.401 219.95 423.738C215.213 424.292 211.596 422.225 210.966 421.373C210.335 420.521 207.071 417.643 204.564 416.635C203.338 416.161 203.051 414.618 203.106 413.176C203.106 413.101 203.106 413.015 203.106 412.939C203.153 412.026 203.288 411.119 203.51 410.232L223.138 409.814L224.838 412.117L225.1 412.47L226.135 413.877C226.135 413.877 226.604 414.492 227.219 415.389C228.258 416.902 229.711 419.135 230.1 420.612C230.72 422.977 228.859 423.319 228.859 423.319Z" fill="white"/>
<path opacity="0.1" d="M228.859 423.319C225.883 423.261 222.907 423.401 219.95 423.738C215.218 424.292 211.596 422.225 210.971 421.373C210.345 420.521 207.071 417.618 204.564 416.645C203.338 416.171 203.051 414.628 203.106 413.186C204.509 413.514 207.455 414.351 208.61 415.808C210.123 417.754 212.832 421.025 216.681 421.232C219.789 421.398 227.355 420.844 230.13 420.622C230.725 422.976 228.859 423.319 228.859 423.319Z" fill="black"/>
<path opacity="0.1" d="M226.523 410.242C226.296 411.926 225.595 412.38 225.09 412.48C224.967 412.504 224.84 412.504 224.717 412.48C224.651 412.476 224.585 412.465 224.52 412.45C224.52 412.45 206.895 416.342 203.333 413.191C203.243 413.11 203.159 413.023 203.081 412.929C203.128 412.016 203.263 411.109 203.485 410.222L223.113 409.803L224.813 412.107C225.107 411.28 225.716 410.603 226.508 410.222L226.523 410.242Z" fill="black"/>
<path opacity="0.1" d="M249.223 412.43C248.83 412.864 248.502 413.111 248.295 413.025C247.367 412.652 239.76 411.356 237.343 412.47C234.927 413.584 226.75 412.652 226.75 412.652C226.75 412.652 226.75 411.684 226.705 410.131C227.054 409.98 227.42 409.869 227.794 409.798C231.759 409.037 248.118 410.565 248.118 410.565C248.118 410.565 248.598 411.412 249.223 412.43Z" fill="black"/>
<path d="M260.735 298.395L258.505 313.792L255.912 323.995L252.199 343.283V363.701C252.199 363.701 254.611 404.324 253.682 405.433C252.754 406.542 249.228 412.859 248.3 412.49C247.372 412.122 239.765 410.822 237.348 411.931C234.932 413.04 226.755 412.117 226.755 412.117C226.755 412.117 226.568 396.353 225.64 391.902C224.712 387.45 227.31 368.53 227.31 368.53L228.238 358.332C228.238 358.332 229.54 351.465 228.425 349.61C227.31 347.755 230.094 340.536 230.094 340.536C230.094 340.536 228.798 336.447 229.171 334.038C229.545 331.628 230.094 322.538 230.094 322.538C230.094 322.538 229.171 328.85 226.594 332.555C224.016 336.261 224.344 369.468 224.344 369.468L224.525 398.203C229.171 413.418 224.525 411.931 224.525 411.931C224.525 411.931 206.9 415.828 203.338 412.672C199.777 409.516 200.796 389.653 200.796 389.653C200.796 389.653 200.428 373.703 201.911 368.883C203.394 364.064 203.863 346.253 203.863 346.253C203.863 346.253 203.767 310.636 203.863 308.231C203.934 306.214 203.863 288.162 203.863 282.52C203.863 281.472 203.863 280.852 203.863 280.852L205.992 275.568L231.214 272.412H243.281C243.281 272.412 261.441 276.677 263.317 278.518C263.357 278.548 263.392 278.586 263.418 278.628C264.634 280.408 260.735 298.395 260.735 298.395Z" fill="#348C6C"/>
<path opacity="0.1" d="M230.11 379.268C230.11 379.268 235.659 392.623 238.277 393.55C240.895 394.478 230.11 379.268 230.11 379.268Z" fill="black"/>
<path opacity="0.1" d="M232.163 398.929C232.163 398.929 250.898 399.857 250.711 401.899C250.525 403.94 232.163 398.929 232.163 398.929Z" fill="black"/>
<path opacity="0.1" d="M207.097 393.591C207.838 394.291 221.388 395.607 220.273 396.888C219.158 398.168 208.211 400.659 208.211 400.659L207.097 393.591Z" fill="black"/>
<path opacity="0.1" d="M204.872 370.552C204.872 371.106 207.657 388.358 208.403 389.099C209.15 389.84 215.269 390.581 215.269 390.581L204.872 370.552Z" fill="black"/>
<path d="M225.075 134.749C222.417 137.719 221.267 141.928 218.169 144.439C216.288 145.951 213.907 146.672 211.717 147.701C209.528 148.729 207.359 150.297 206.708 152.626C205.982 155.247 207.384 157.924 208.121 160.546C208.882 163.258 208.928 166.091 208.973 168.929C209.024 172.363 209.079 175.796 209.019 179.229C208.928 184.578 208.484 190.174 205.644 194.706C215.899 197.967 226.805 198.411 237.56 198.83C239.627 198.977 241.703 198.925 243.76 198.673C245.542 198.318 247.305 197.872 249.042 197.337C252.475 196.429 256.013 195.977 259.564 195.991C261.113 195.991 262.692 196.087 264.185 195.684C265.678 195.28 267.116 194.247 267.52 192.755C267.878 191.414 267.353 189.987 266.667 188.782C265.416 186.584 263.64 184.749 262.299 182.581C260.929 180.292 260.116 177.712 259.926 175.051C259.736 172.39 260.174 169.722 261.204 167.261C262.394 164.493 264.311 162.083 265.482 159.311C266.68 156.334 266.999 153.075 266.4 149.923C265.801 146.77 264.309 143.855 262.102 141.525C258.031 137.361 252.189 135.748 246.6 134.891C244.247 134.613 242.001 133.746 240.072 132.37C237.929 130.958 235.149 130.615 232.637 130.928C229.739 131.253 227.055 132.609 225.075 134.749Z" fill="#3F3D56"/>
<g opacity="0.1">
<path opacity="0.1" d="M261.36 164.352C260.332 166.781 259.891 169.419 260.074 172.05C260.187 170.168 260.622 168.32 261.36 166.585C262.546 163.818 264.463 161.408 265.633 158.635C266.59 156.32 266.992 153.813 266.808 151.315C266.704 153.066 266.307 154.787 265.633 156.407C264.463 159.18 262.546 161.584 261.36 164.352Z" fill="black"/>
<path opacity="0.1" d="M209.125 168.244C209.155 170.22 209.185 172.201 209.19 174.177C209.19 171.455 209.165 168.738 209.125 166.021C209.084 163.202 209.034 160.349 208.272 157.632C207.768 155.908 207.021 154.158 206.759 152.419C206.31 154.889 207.586 157.395 208.272 159.86C209.034 162.552 209.084 165.426 209.125 168.244Z" fill="black"/>
<path opacity="0.1" d="M264.357 192.8C262.843 193.208 261.29 193.118 259.741 193.108C256.192 193.085 252.656 193.529 249.223 194.428C247.486 194.961 245.724 195.405 243.942 195.759C241.884 196.015 239.805 196.069 237.737 195.921C227.345 195.512 216.807 195.074 206.854 192.104C206.559 192.764 206.222 193.403 205.846 194.02C216.101 197.277 227.007 197.725 237.757 198.144C239.826 198.292 241.904 198.238 243.962 197.983C245.737 197.632 247.494 197.19 249.223 196.657C252.649 195.754 256.178 195.305 259.721 195.321C261.269 195.321 262.843 195.417 264.337 195.008C265.83 194.6 267.267 193.576 267.671 192.084C267.841 191.393 267.824 190.669 267.62 189.987C267.171 191.399 265.784 192.382 264.357 192.8Z" fill="black"/>
</g>
<path d="M249.415 186.826C249.042 187.663 247.468 194.892 247.094 195.633C246.721 196.374 244.683 208.237 244.496 208.902C244.31 209.567 231.063 206.119 231.063 206.119L223.088 199.439L214.89 191.288C214.89 191.288 214.648 183.932 220.686 181.573C221.097 181.412 221.518 181.281 221.948 181.18C229.272 179.42 228.536 157.163 228.536 157.163L243.568 163.651C243.568 163.651 240.784 176.638 240.88 179.143C240.905 179.985 241.566 180.509 242.428 180.827C243.762 181.206 245.15 181.356 246.534 181.271C246.534 181.271 249.788 185.994 249.415 186.826Z" fill="#FBBEBE"/>
<path d="M276.327 211.216L278.461 211.776C278.461 211.776 280.04 214.175 276.327 216.409C273.97 217.84 271.707 219.421 269.552 221.142L258.581 224.48L256.467 217.85L266.677 210.107L276.327 211.216Z" fill="#348C6C"/>
<path opacity="0.1" d="M276.327 211.216L278.461 211.776C278.461 211.776 280.04 214.175 276.327 216.409C273.97 217.84 271.707 219.421 269.552 221.142L258.581 224.48L256.467 217.85L266.677 210.107L276.327 211.216Z" fill="black"/>
<path d="M196.256 217.618L191.988 221.793C191.988 221.793 199.686 230.696 205.609 231.25C211.531 231.805 215.349 224.48 215.349 224.48L210.224 216.414L196.256 217.618Z" fill="#348C6C"/>
<path opacity="0.1" d="M196.256 217.618L191.988 221.793C191.988 221.793 199.686 230.696 205.609 231.25C211.531 231.805 215.349 224.48 215.349 224.48L210.224 216.414L196.256 217.618Z" fill="black"/>
<path opacity="0.1" d="M236.794 171.707C244.993 171.707 251.64 165.065 251.64 156.871C251.64 148.677 244.993 142.034 236.794 142.034C228.594 142.034 221.948 148.677 221.948 156.871C221.948 165.065 228.594 171.707 236.794 171.707Z" fill="black"/>
<path d="M236.794 170.593C244.993 170.593 251.64 163.951 251.64 155.757C251.64 147.562 244.993 140.92 236.794 140.92C228.594 140.92 221.948 147.562 221.948 155.757C221.948 163.951 228.594 170.593 236.794 170.593Z" fill="#FBBEBE"/>
<path opacity="0.1" d="M263.428 280.312C260.048 280.699 256.718 281.444 253.496 282.535C247.947 284.381 204.463 282.566 203.858 282.535C203.858 281.487 203.858 280.867 203.858 280.867L205.987 275.583L231.209 272.428H243.276C243.276 272.428 261.436 276.693 263.312 278.533C263.388 279.642 263.428 280.312 263.428 280.312Z" fill="black"/>
<path opacity="0.1" d="M249.415 186.826C249.042 187.663 247.468 194.892 247.094 195.633C246.721 196.374 244.683 208.237 244.496 208.902C244.31 209.568 231.063 206.119 231.063 206.119L223.088 199.44L214.89 191.288C214.89 191.288 214.648 183.932 220.686 181.573L235.679 198.799L242.428 180.827C243.762 181.206 245.15 181.356 246.534 181.271C246.534 181.271 249.788 185.994 249.415 186.826Z" fill="black"/>
<path d="M235.679 199.354L220.333 181.709C219.435 181.136 218.409 180.795 217.346 180.717C216.283 180.639 215.217 180.825 214.245 181.261C210.809 182.748 206.542 183.953 205.427 184.694C204.312 185.435 200.135 190.022 200.135 190.022L212.575 222.544L207.097 243.964C207.097 243.964 207.934 254.909 205.8 258.897C204.501 261.446 203.892 264.292 204.035 267.149C204.035 267.149 204.685 272.438 203.944 275.216C203.511 277.073 203.478 279.001 203.848 280.872C203.848 280.872 247.932 282.727 253.496 280.872C256.718 279.777 260.048 279.032 263.428 278.649C263.428 278.649 262.42 260.097 261.411 255.645C260.402 251.194 262.248 234.225 262.248 234.225L261.042 216.046L268.276 197.393C268.276 197.393 264.357 185.435 260.271 184.23C260.271 184.23 252.85 182.465 251.271 181.634C249.692 180.802 245.051 180.056 245.051 180.056L242.615 180.872L235.679 199.354Z" fill="#348C6C"/>
<path opacity="0.1" d="M257.089 215.432L224.798 213.237C223.981 213.182 223.273 213.799 223.218 214.616L219.751 265.566C219.695 266.383 220.313 267.09 221.13 267.146L253.421 269.34C254.238 269.396 254.945 268.779 255.001 267.962L258.468 217.011C258.523 216.194 257.906 215.487 257.089 215.432Z" fill="black"/>
<path d="M258.201 214.325L225.91 212.131C225.093 212.075 224.385 212.692 224.329 213.509L220.863 264.46C220.807 265.277 221.425 265.984 222.242 266.039L254.533 268.233C255.35 268.289 256.057 267.672 256.113 266.855L259.58 215.904C259.635 215.088 259.018 214.381 258.201 214.325Z" fill="#3F3D56"/>
<path d="M257.135 218.319L226.424 216.232L223.268 262.616L253.979 264.703L257.135 218.319Z" fill="white"/>
<path opacity="0.1" d="M254.381 230.158L229.295 228.403L228.806 235.391L253.892 237.146L254.381 230.158Z" fill="black"/>
<path opacity="0.1" d="M253.474 257.925L249.493 257.655L249.245 261.296L253.226 261.567L253.474 257.925Z" fill="black"/>
<path opacity="0.1" d="M249.547 249.137L229.169 247.752L228.921 251.393L249.299 252.778L249.547 249.137Z" fill="black"/>
<path d="M253.334 216.585L232.115 215.143L231.734 220.741L252.953 222.183L253.334 216.585Z" fill="#3F3D56"/>
<path opacity="0.1" d="M253.334 216.585L232.115 215.143L231.734 220.741L252.953 222.183L253.334 216.585Z" fill="black"/>
<path opacity="0.1" d="M237.535 279.289C237.535 279.289 237.348 306.744 230.11 322.508C230.11 322.508 238.837 301.733 238.837 300.901C238.837 300.069 243.659 291.348 242.368 288.751C241.076 286.155 237.535 279.289 237.535 279.289Z" fill="black"/>
<path opacity="0.1" d="M237.929 152.046C237.651 149.616 238.247 147.167 239.608 145.134C239.446 147.171 240.023 149.198 241.232 150.846C242.442 152.493 244.204 153.651 246.196 154.108C246.026 153.96 245.905 153.765 245.848 153.547C245.792 153.329 245.802 153.1 245.879 152.888C246.913 154.058 247.705 155.444 248.875 156.472C250.045 157.501 251.801 158.116 253.178 157.385C255.05 156.377 255.07 153.72 254.585 151.653C253.546 147.251 251.414 143.182 248.386 139.821C247.63 138.805 246.65 137.978 245.521 137.404C244.392 136.83 243.145 136.525 241.878 136.514C239.013 136.292 236.037 136.544 233.469 137.83C232.024 138.618 230.671 139.563 229.434 140.648L222.371 146.405C221.692 146.894 221.11 147.506 220.656 148.21C220.353 148.798 220.171 149.441 220.121 150.1C219.941 151.986 220.29 153.884 221.13 155.582C221.969 157.28 223.265 158.711 224.873 159.714C224.839 158.224 225.25 156.757 226.052 155.5C226.854 154.244 228.012 153.254 229.378 152.656C229.592 152.835 229.765 153.057 229.886 153.309C230.007 153.56 230.073 153.834 230.079 154.113L231.567 151.461C231.789 150.979 232.138 150.566 232.576 150.266C233.494 149.762 234.64 150.357 235.421 151.068C236.203 151.779 236.965 152.666 238.014 152.777L238.055 148.83" fill="black"/>
<path d="M237.928 151.492C237.65 149.06 238.246 146.609 239.608 144.575C239.154 148.608 242.196 152.772 246.201 153.548C246.031 153.402 245.91 153.208 245.853 152.991C245.796 152.773 245.807 152.544 245.884 152.333C246.918 153.503 247.71 154.884 248.88 155.918C250.05 156.951 251.806 157.561 253.183 156.825C255.055 155.817 255.075 153.16 254.59 151.098C253.551 146.697 251.419 142.627 248.391 139.266C247.451 138.122 246.267 137.202 244.925 136.574C243.954 136.215 242.933 136.008 241.899 135.959C239.033 135.737 236.057 135.984 233.489 137.27C232.045 138.062 230.692 139.008 229.454 140.093L222.391 145.85C221.711 146.338 221.129 146.951 220.676 147.655C220.373 148.243 220.191 148.886 220.142 149.546C219.962 151.43 220.311 153.328 221.15 155.025C221.99 156.723 223.286 158.153 224.893 159.154C224.861 157.664 225.271 156.198 226.073 154.942C226.875 153.685 228.033 152.695 229.398 152.097C229.612 152.276 229.784 152.499 229.905 152.75C230.026 153.001 230.092 153.275 230.099 153.553L231.582 150.912C231.803 150.428 232.152 150.015 232.591 149.717C233.509 149.213 234.655 149.808 235.437 150.519C236.218 151.229 236.98 152.112 238.029 152.228L238.07 148.275" fill="#3F3D56"/>
<path d="M244.961 245.073C243.664 244.418 222.225 247.76 222.225 247.76C222.225 247.76 218.694 246.752 210.159 245.351C201.623 243.949 201.078 235.611 201.078 235.611L200.145 218.919L203.026 216.398L215.365 224.465C215.365 224.465 215.556 228.543 215.365 229.279C215.243 229.783 214.921 230.383 214.951 230.791C214.96 230.902 215.006 231.006 215.081 231.088C215.155 231.17 215.255 231.226 215.365 231.245C216.202 231.457 227.613 233.302 227.613 233.302C227.613 233.302 254.061 231.492 260.654 240.395C261.176 241.049 261.572 241.794 261.819 242.593C263.454 248.678 246.136 245.653 244.961 245.073Z" fill="#FBBEBE"/>
<path opacity="0.1" d="M261.834 242.628C260.825 243.077 260.2 243.4 260.2 243.4C260.2 243.4 250.736 243.122 245.42 241.197C240.103 239.271 233.641 239.614 233.641 239.614C233.641 239.614 211.485 235.802 214.921 230.827C214.93 230.937 214.976 231.042 215.05 231.124C215.125 231.206 215.225 231.261 215.334 231.28C216.172 231.492 227.582 233.337 227.582 233.337C227.582 233.337 254.031 231.527 260.624 240.43C261.162 241.08 261.573 241.826 261.834 242.628Z" fill="black"/>
<path d="M271.036 213.258C271.036 213.258 272.337 222.438 272.428 223.184C272.519 223.93 272.988 232.919 272.428 233.942C271.868 234.966 271.036 236.629 271.036 236.629C271.036 236.629 271.964 238.575 268.251 239.321C264.538 240.067 260.18 242.286 260.18 242.286C260.18 242.286 250.711 242.008 245.425 240.062C240.138 238.116 233.641 238.484 233.641 238.484C233.641 238.484 205.518 233.66 217.584 227.772C229.651 221.883 238.186 229.859 238.186 229.859L251.639 229.027C251.639 229.027 256.654 225.962 258.046 226.244C259.029 226.369 260.028 226.208 260.921 225.78L261.017 216.041L271.036 213.258Z" fill="#FBBEBE"/>
<path opacity="0.1" d="M202.814 190.723L200.12 190.582L191.958 222.342C191.958 222.342 200.771 220.114 204.569 222.342C208.368 224.57 215.334 225.029 215.334 225.029L212.736 199.712L202.814 190.723Z" fill="black"/>
<path d="M202.814 190.163L200.12 190.022L191.958 221.783C191.958 221.783 200.771 219.554 204.569 221.783C208.368 224.011 215.334 224.47 215.334 224.47L212.736 199.152L202.814 190.163Z" fill="#348C6C"/>
<path opacity="0.1" d="M264.543 197.12L268.251 197.957C268.251 197.957 277.72 211.569 278.461 212.33C279.203 213.091 274.93 215.859 273.169 215.859C271.409 215.859 262.778 216.867 260.271 219.196C257.763 221.525 258.808 209.804 258.808 209.537C258.808 209.27 261.92 201.874 261.92 201.874L264.543 197.12Z" fill="black"/>
<path d="M264.543 196.566L268.251 197.398C268.251 197.398 277.72 211.035 278.461 211.776C279.203 212.517 274.93 215.304 273.169 215.304C271.409 215.304 262.778 216.313 260.271 218.642C257.763 220.971 258.808 209.25 258.808 208.983C258.808 208.715 261.94 201.295 261.94 201.295L264.543 196.566Z" fill="#348C6C"/>
<g opacity="0.1">
<path opacity="0.1" d="M239.583 144.62C239.561 144.234 239.57 143.846 239.608 143.461C238.84 144.612 238.312 145.907 238.055 147.267V148.436C238.055 148.436 238.055 148.411 238.055 148.396V148.673C238.055 149.49 238.055 150.312 238.029 151.129H237.959V151.507C237.959 151.376 237.959 151.25 237.934 151.118C236.925 150.957 236.203 150.11 235.452 149.435C234.7 148.759 233.525 148.114 232.607 148.633C232.167 148.931 231.818 149.345 231.598 149.828L230.1 152.47C230.093 152.192 230.027 151.918 229.906 151.668C229.785 151.417 229.612 151.196 229.398 151.018C228.032 151.615 226.874 152.605 226.072 153.862C225.27 155.119 224.86 156.585 224.894 158.075C223.515 157.212 222.362 156.034 221.53 154.638C220.698 153.241 220.21 151.667 220.106 150.045C220.019 151.856 220.416 153.658 221.258 155.265C222.099 156.871 223.354 158.224 224.894 159.185C224.861 157.695 225.272 156.228 226.074 154.972C226.876 153.716 228.033 152.725 229.398 152.127C229.612 152.306 229.784 152.529 229.905 152.78C230.026 153.031 230.092 153.305 230.1 153.584L231.583 150.942C231.803 150.459 232.152 150.045 232.592 149.747C233.51 149.243 234.655 149.838 235.437 150.549C236.218 151.26 236.98 152.142 238.029 152.258C238.029 150.967 238.043 149.68 238.07 148.396C238.317 147.049 238.832 145.765 239.583 144.62Z" fill="black"/>
<path opacity="0.1" d="M237.878 149.697C237.903 149.354 237.944 149.011 237.994 148.689L238.05 147.297C237.898 148.087 237.84 148.893 237.878 149.697Z" fill="black"/>
<path opacity="0.1" d="M253.183 155.711C251.806 156.447 250.05 155.832 248.88 154.804C247.71 153.775 246.918 152.389 245.884 151.219C245.807 151.431 245.797 151.661 245.853 151.878C245.91 152.096 246.031 152.292 246.202 152.439C246.101 152.439 246.005 152.389 245.909 152.364C246.918 153.523 247.72 154.884 248.88 155.893C250.04 156.901 251.806 157.536 253.183 156.8C254.56 156.064 254.954 154.34 254.833 152.661C254.742 153.982 254.268 155.126 253.183 155.711Z" fill="black"/>
<path opacity="0.1" d="M245.879 152.354C244.192 151.894 242.686 150.93 241.562 149.591C240.439 148.252 239.752 146.602 239.593 144.862C239.306 148.82 242.292 152.787 246.202 153.548C246.035 153.404 245.915 153.213 245.858 153C245.8 152.787 245.808 152.562 245.879 152.354Z" fill="black"/>
</g>
<path d="M488.135 234.749C488.135 234.749 486.148 234.472 486.148 231.583C486.148 228.694 484.725 223.285 484.725 223.285C484.725 223.285 483.494 213.873 481.794 212.381C480.094 210.888 477.91 202.127 477.91 202.127C477.91 202.127 477.537 197.373 476.775 196.349C476.013 195.326 474.984 192.82 473.466 189.246C471.948 185.672 465.632 183.222 465.632 183.222C465.632 183.222 454.186 176.587 450.942 174.425C450.646 174.245 450.368 174.036 450.115 173.799C449.55 173.063 447.088 173.048 447.088 173.048C446.831 171.42 446.584 169.555 446.503 167.866C446.503 167.684 446.503 167.503 446.503 167.321C450.12 165.185 452.844 161.816 454.176 157.834C454.236 157.642 454.287 157.445 454.342 157.249C454.564 157.181 454.768 157.066 454.942 156.913C455.116 156.76 455.255 156.572 455.351 156.361C455.639 155.711 455.649 154.955 456.012 154.345C456.436 153.629 457.243 153.246 457.878 152.712C459.483 151.345 459.896 149.052 459.821 146.97C459.77 145.276 459.498 143.572 459.604 141.893C459.604 141.752 459.604 141.611 459.634 141.469C459.664 141.222 459.7 140.965 459.745 140.723C459.992 139.473 460.532 138.293 460.835 137.053C461.137 135.813 461.167 134.417 460.461 133.348C459.427 131.78 457.273 131.467 455.381 131.331C453.238 131.15 451.346 131.382 449.949 129.602C449.308 128.673 448.585 127.802 447.789 127.001C447.507 126.739 444.763 125.06 444.763 124.954C442.078 123.707 439.032 123.472 436.187 124.294C434.76 124.707 433.423 125.383 431.975 125.72C428.868 126.456 425.286 125.66 422.643 127.439C421.17 128.448 420.287 130.056 419.46 131.614C418.787 132.898 418.104 134.183 417.412 135.47C416.292 137.583 415.162 139.73 414.693 142.069C414.594 142.58 414.532 143.097 414.506 143.617C414.506 143.804 414.506 143.99 414.506 144.177C414.506 144.257 414.506 144.338 414.506 144.419C414.506 144.59 414.506 144.761 414.536 144.923C414.566 145.084 414.536 145.129 414.572 145.235C414.607 145.341 414.617 145.578 414.647 145.739C414.677 145.901 414.738 146.188 414.799 146.405C414.799 146.501 414.859 146.591 414.889 146.687C414.92 146.783 415 147.025 415.066 147.191C415.131 147.358 415.137 147.368 415.177 147.453C415.253 147.63 415.343 147.801 415.434 147.958C415.474 148.023 415.505 148.089 415.545 148.154C415.683 148.39 415.839 148.616 416.009 148.83C417.084 150.176 418.678 151.033 419.853 152.293C419.853 152.344 419.853 152.394 419.853 152.444C419.853 152.581 419.853 152.717 419.853 152.858C419.925 155.669 420.683 158.42 422.062 160.871C423.44 163.323 425.398 165.4 427.763 166.923C427.763 167.115 427.788 167.311 427.798 167.508C427.897 169.003 427.878 170.503 427.743 171.995C427.537 171.753 427.28 171.561 426.99 171.432C426.7 171.303 426.385 171.24 426.068 171.248C425.851 171.238 425.634 171.256 425.422 171.304L425.377 171.269V171.314C424.267 171.586 422.9 172.741 421.593 176.023C421.593 176.023 417.618 180.499 414.592 180.313C411.565 180.126 403.902 184.976 403.902 184.976C403.902 184.976 396.427 189.821 394.822 194.761C393.926 197.563 392.849 200.305 391.599 202.968L382.332 221.984L380.632 237.108C380.632 237.108 381.576 243.818 381.389 244.847C381.202 245.875 385.268 255.101 385.268 255.101C385.268 255.101 398.702 278.684 404.19 279.894L404.583 279.622C404.819 279.741 405.068 279.832 405.325 279.894L406.455 279.102C406.525 279.989 406.494 280.88 406.364 281.759C405.613 284.093 406.652 299.288 407.973 302.267C409.295 305.247 408.826 344.317 408.826 344.317L408.639 347.76C408.639 347.76 408.639 347.871 408.685 348.063L408.639 348.879L408.775 348.95C408.917 350.045 408.871 351.157 408.639 352.237C408.165 353.749 407.973 358.019 407.973 358.019C407.973 358.019 404.19 382.157 405.986 387.007C407.782 391.856 409.3 397.17 409.3 397.17C409.3 397.17 411.192 403.22 409.391 404.228C407.59 405.236 402.49 407.026 403.529 409.541C404.488 411.87 408.125 418.112 408.664 419.024L408.619 419.528L407.877 427.559C407.998 428.619 408.285 429.654 408.73 430.624C409.542 432.379 411.116 434.188 414.123 433.992C414.627 433.956 415.207 433.901 415.777 433.825C421.271 433.084 428.03 430.634 428.03 430.634C427.68 430.412 427.359 430.146 427.077 429.843C426.807 429.581 426.593 429.268 426.448 428.921C426.303 428.574 426.231 428.202 426.234 427.826C426.315 426.359 423.576 419.397 422.89 417.678L422.734 417.295C422.734 417.295 428.979 410.766 427.939 404.989C427.939 404.989 421.028 400.956 423.304 398.738C425.579 396.52 429.644 390.168 429.644 390.168C429.644 390.168 429.831 366.398 429.644 362.854C429.45 360.389 429.567 357.909 429.993 355.473C430.068 355.11 430.159 354.752 430.255 354.394C433.404 354.869 436.584 355.11 439.769 355.115C440.932 355.115 442.109 355.092 443.3 355.045C443.3 355.381 443.315 355.744 443.345 356.134C443.608 362.022 444.097 372.352 444.495 376.188C445.06 381.683 448.183 396.51 448.183 396.51C448.183 396.51 442.225 400.326 449.222 409.748C449.222 409.748 449.222 413.156 448.758 413.655C448.262 415.272 447.863 416.916 447.562 418.58C447.27 420.35 447.149 422.15 447.623 423.077C448.758 425.306 455.568 425.124 455.568 425.124C455.623 425.111 455.678 425.103 455.735 425.099C457.02 424.963 458.32 425.085 459.557 425.457C460.795 425.829 461.946 426.445 462.943 427.267C465.531 429.344 475.348 428.436 480.669 427.771C482.753 427.504 484.145 427.267 484.145 427.267C484.212 427.031 484.236 426.785 484.216 426.541C484.16 425.235 483.136 422.372 476.195 419.816C476.195 419.816 469.667 415.43 469.758 411.608H469.612H468.86C469.335 411.593 469.667 411.593 469.667 411.593C469.667 411.593 467.11 402.272 468.154 401.511C469.198 400.749 466.071 390.42 466.071 390.42C466.071 390.42 464.28 373.078 464.179 371.868C464.186 370.825 464.345 369.789 464.653 368.792L464.179 359.279C464.179 359.279 464.088 356.119 464.179 355.09C464.169 354.197 464.098 353.306 463.967 352.423C463.922 352.07 463.876 351.702 463.826 351.339C466.272 350.719 467.862 350.15 467.862 350.15L467.579 317.053C469.657 313.02 470.041 304.168 470.031 297.896C470.031 293.863 469.849 290.879 469.849 290.879L472.689 286.246C472.689 286.246 473.345 280.701 472.306 279.486C471.847 278.936 472.053 278.366 472.432 277.898C472.631 277.734 472.842 277.586 473.062 277.454C473.038 277.419 473.016 277.382 472.997 277.343C473.195 277.177 473.406 277.027 473.627 276.894C473.627 276.894 472.618 275.332 473.521 274.671C474.369 275.246 475.126 275.705 475.701 276.032C475.66 276.4 475.62 276.612 475.62 276.612L475.862 276.108C476.417 276.42 476.755 276.612 476.755 276.612C476.755 276.612 481.204 267.754 481.108 266.454C481.012 265.153 484.135 259.648 484.135 259.648C484.135 259.648 484.513 256.754 486.218 255.544C487.923 254.334 487.54 245.568 487.54 245.568C487.54 245.568 488.014 241 489.149 239.14C490.284 237.28 488.135 234.749 488.135 234.749ZM403.005 230.862L403.09 232.974C402.586 232.163 402.223 231.583 402.223 231.583L403.005 230.862Z" fill="url(#paint1_linear)"/>
<path d="M477.017 272.781L475.928 277.419C475.928 277.419 467.201 272.957 465.632 267.311C464.063 261.664 468.26 259.512 468.26 259.512L476.397 262.95L477.017 272.781Z" fill="white"/>
<path opacity="0.1" d="M477.017 272.781L475.928 277.419C475.928 277.419 467.201 272.957 465.632 267.311C464.063 261.664 468.26 259.512 468.26 259.512L476.397 262.95L477.017 272.781Z" fill="black"/>
<path d="M428.04 430.629C428.04 430.629 419.969 433.593 414.42 433.966C411.474 434.163 409.926 432.358 409.129 430.619C408.695 429.66 408.413 428.64 408.291 427.594L409.023 419.604L409.406 415.354L421.195 412.289L422.865 417.396L423.021 417.779C423.687 419.488 426.381 426.415 426.3 427.861C426.293 428.236 426.363 428.607 426.504 428.954C426.646 429.3 426.856 429.615 427.122 429.878C427.395 430.166 427.704 430.419 428.04 430.629Z" fill="white"/>
<path d="M483.146 426.566C483.167 426.81 483.143 427.056 483.076 427.292C483.076 427.292 465.813 430.165 462.282 427.292C461.29 426.452 460.133 425.829 458.885 425.462C457.638 425.095 456.328 424.992 455.038 425.159C455.038 425.159 448.36 425.341 447.245 423.143C446.781 422.22 446.902 420.431 447.189 418.671C447.483 417.016 447.874 415.38 448.36 413.771L448.627 413.559L450.216 412.284L468.82 411.734H468.961C468.87 415.536 475.272 419.896 475.272 419.896C482.087 422.417 483.091 425.265 483.146 426.566Z" fill="white"/>
<path opacity="0.1" d="M483.152 426.566C483.169 426.81 483.144 427.056 483.076 427.292C483.076 427.292 465.814 430.165 462.287 427.292C461.294 426.452 460.136 425.828 458.888 425.461C457.64 425.094 456.329 424.991 455.039 425.159C455.039 425.159 448.355 425.341 447.24 423.143C446.781 422.22 446.897 420.431 447.184 418.666C449.757 418.923 453.818 419.563 455.412 421.096C457.823 423.415 461.909 425.734 464.411 425.921C466.389 426.042 478.147 426.415 483.152 426.566Z" fill="black"/>
<path opacity="0.1" d="M428.04 430.629C428.04 430.629 419.969 433.594 414.42 433.967C411.474 434.163 409.925 432.358 409.128 430.619C411.187 431.31 414.037 432.031 415.535 431.37C417.311 430.579 423.606 430.075 427.137 429.858C427.404 430.153 427.707 430.412 428.04 430.629Z" fill="black"/>
<path d="M440.016 191.726C433.357 189.14 424.792 180.595 426.931 176.602C427.403 175.594 427.685 174.507 427.763 173.396C427.901 171.887 427.921 170.37 427.823 168.859C427.673 166.381 427.375 163.915 426.931 161.473C426.931 161.473 447.719 161.942 446.508 165.002C446.155 165.905 446.095 167.462 446.196 169.202C446.296 170.941 446.544 172.922 446.806 174.591C447.164 176.874 447.532 178.624 447.532 178.624C447.532 178.624 446.256 180.403 445.515 180.499C444.773 180.595 449.57 195.432 440.016 191.726Z" fill="#CF6F80"/>
<path opacity="0.1" d="M423.001 417.754L422.845 417.925C416.63 410.413 409.113 419.78 409.113 419.78L409.002 419.579L409.386 415.329L421.175 412.264L422.845 417.371L423.001 417.754Z" fill="black"/>
<path opacity="0.1" d="M468.971 412.264C468.971 412.264 464.431 412.173 462.01 414.31C459.589 416.448 447.885 414.769 448.39 414.31C448.537 414.078 448.627 413.813 448.652 413.539L450.241 412.264L468.845 411.714C468.916 412.067 468.971 412.264 468.971 412.264Z" fill="black"/>
<path d="M430.734 353.275C430.397 354.111 430.14 354.977 429.967 355.861C429.547 358.284 429.43 360.75 429.619 363.202C429.806 366.73 429.619 390.379 429.619 390.379C429.619 390.379 425.629 396.686 423.399 398.909C421.17 401.132 427.939 405.125 427.939 405.125C428.948 410.877 422.834 417.371 422.834 417.371C416.62 409.859 409.103 419.221 409.103 419.221C409.103 419.221 405.017 412.163 403.998 409.642C402.979 407.122 407.989 405.382 409.749 404.354C411.51 403.325 409.658 397.296 409.658 397.296C409.658 397.296 408.175 392.008 406.41 387.183C404.644 382.359 408.357 358.347 408.357 358.347C408.357 358.347 408.548 354.077 409.008 352.59C409.237 351.516 409.283 350.412 409.144 349.323C409.113 348.955 409.078 348.652 409.053 348.441C409.028 348.229 409.008 348.138 409.008 348.138L409.078 348.017L411.6 343.319C411.6 343.319 431.945 350.316 430.734 353.275Z" fill="#348C6C"/>
<path d="M468.971 411.709C468.971 411.709 464.431 411.613 462.01 413.726C459.589 415.838 447.885 414.189 448.39 413.726C448.894 413.262 448.849 409.834 448.849 409.834C441.983 400.462 447.84 396.661 447.84 396.661C447.84 396.661 444.778 381.915 444.223 376.445C443.835 372.629 443.355 362.329 443.098 356.497C442.987 353.976 442.922 352.237 442.922 352.237L448.481 351.133L449.202 350.991L462.731 348.274C462.731 348.274 463.105 350.795 463.357 352.857C463.484 353.737 463.554 354.624 463.564 355.513C463.478 356.522 463.564 359.683 463.564 359.683L464.028 369.14C463.728 370.133 463.572 371.163 463.564 372.2C463.66 373.41 465.42 390.656 465.42 390.656C465.42 390.656 468.482 400.951 467.438 401.692C466.394 402.433 468.971 411.709 468.971 411.709Z" fill="#348C6C"/>
<path opacity="0.1" d="M446.508 165.017C446.155 165.92 446.095 167.477 446.195 169.217C443.411 170.892 440.21 171.749 436.96 171.689C433.71 171.628 430.543 170.652 427.823 168.874C427.673 166.396 427.375 163.93 426.931 161.488C426.931 161.488 447.719 161.957 446.508 165.017Z" fill="black"/>
<path d="M454.534 153.886C454.589 158.46 452.823 162.869 449.626 166.142C446.428 169.415 442.06 171.284 437.484 171.339C432.907 171.394 428.495 169.63 425.22 166.434C421.945 163.238 420.074 158.874 420.02 154.3C420.02 154.158 420.02 154.027 420.02 153.886C420.02 149.311 421.838 144.923 425.076 141.688C428.313 138.452 432.704 136.635 437.282 136.635C441.86 136.635 446.251 138.452 449.488 141.688C452.725 144.923 454.544 149.311 454.544 153.886H454.534Z" fill="#CF6F80"/>
<path opacity="0.1" d="M440.016 191.726C433.357 189.14 424.792 180.595 426.931 176.602C427.403 175.594 427.685 174.507 427.763 173.396L436.878 180.888L442.518 185.51L446.806 174.606C447.164 176.89 447.532 178.639 447.532 178.639C447.532 178.639 446.256 180.419 445.515 180.514C444.773 180.61 449.57 195.432 440.016 191.726Z" fill="black"/>
<path d="M463.589 224.833L455.977 352.63L446.049 353.28L420.337 279.178L424.555 191.202L425.447 172.615L436.878 181.997L442.518 186.619L446.932 175.392L455.139 182.541L463.589 224.833Z" fill="#348C6C"/>
<path opacity="0.1" d="M430.734 353.275C430.397 354.111 430.14 354.977 429.967 355.861C422.737 354.749 415.714 352.558 409.134 349.363L408.997 349.292L409.043 348.481V348.057L411.565 343.359C411.565 343.359 431.945 350.316 430.734 353.275Z" fill="black"/>
<path opacity="0.1" d="M448.647 355.882C446.801 356.197 444.938 356.411 443.068 356.522C442.957 354.001 442.891 352.262 442.891 352.262L448.481 351.133L448.647 355.882Z" fill="black"/>
<path opacity="0.1" d="M463.377 352.857C459.79 353.789 454.246 354.838 449.293 354.183L449.222 350.991L462.751 348.274C462.751 348.274 463.11 350.775 463.377 352.857Z" fill="black"/>
<path opacity="0.1" d="M449.202 354.767C428.52 358.296 409.577 348.178 409.577 348.178L409.759 344.75C409.759 344.75 410.228 305.887 408.927 302.907C407.625 299.928 406.611 284.839 407.348 282.536C408.084 280.232 404.659 245.447 404.659 245.447L404.104 231.331L383.78 223.078L392.86 204.158C394.086 201.506 395.141 198.778 396.018 195.991C397.597 191.076 404.926 186.251 404.926 186.251C404.926 186.251 412.443 181.432 415.414 181.613C418.385 181.795 422.279 177.348 422.279 177.348C425.155 170.023 427.758 173.315 427.758 173.315C427.758 173.668 427.758 173.315 427.617 174.399C426.608 182.44 443.93 207.848 444.178 208.302L445.847 248.461L447.517 299.283L449.202 354.767Z" fill="black"/>
<path d="M448.647 354.767C427.965 358.296 409.018 348.178 409.018 348.178L409.204 344.75C409.204 344.75 409.668 305.887 408.367 302.907C407.065 299.928 406.051 284.824 406.793 282.5C407.535 280.176 404.089 245.426 404.089 245.426L403.529 231.311L383.21 223.058L392.29 204.138C393.513 201.486 394.568 198.76 395.448 195.976C397.027 191.076 404.382 186.246 404.382 186.246C404.382 186.246 411.898 181.427 414.864 181.608C417.83 181.79 421.745 177.348 421.745 177.348C424.625 170.023 427.798 173.315 427.798 173.315C427.798 173.668 427.496 173.82 427.657 174.399C429.877 182.198 443.416 207.848 443.663 208.302L445.333 248.461L446.967 299.308L448.647 354.767Z" fill="white"/>
<path opacity="0.1" d="M443.073 209.436C440.848 208.509 429.064 195.064 429.064 195.064V192.004C428.635 190.995 426.083 191.61 424.02 192.316L424.908 173.729L425.917 174.566C428.121 182.359 442.831 208.988 443.073 209.436Z" fill="black"/>
<path d="M443.633 208.327C441.403 207.395 429.619 193.955 429.619 193.955V190.889C429.19 189.881 426.643 190.496 424.575 191.202L425.447 172.635L426.456 173.467C428.681 181.25 443.386 207.874 443.633 208.327Z" fill="white"/>
<path opacity="0.1" d="M409.578 275.377C409.855 275.377 423.959 273.895 423.959 273.895C423.959 273.895 432.5 290.682 431.94 294.761C431.38 298.839 430.366 302.459 426.931 301.819C423.495 301.178 408.443 302.323 408.443 302.323L409.578 275.377Z" fill="black"/>
<path d="M409.018 274.263C409.3 274.263 423.404 272.781 423.404 272.781C423.404 272.781 431.94 289.593 431.385 293.626C430.83 297.659 429.806 301.324 426.376 300.684C422.945 300.044 407.883 301.188 407.883 301.188L409.018 274.263Z" fill="white"/>
<path d="M419.646 266.403C419.646 266.403 432.59 273.36 432.868 275.478C433.145 277.595 426.28 274.55 424.797 274.177C423.82 273.945 422.826 273.79 421.825 273.713L411.933 273.98L419.646 266.403Z" fill="#CF6F80"/>
<path opacity="0.1" d="M439.456 210.303C440.208 210.303 440.818 209.694 440.818 208.942C440.818 208.191 440.208 207.581 439.456 207.581C438.704 207.581 438.094 208.191 438.094 208.942C438.094 209.694 438.704 210.303 439.456 210.303Z" fill="black"/>
<path d="M439.456 209.749C440.208 209.749 440.818 209.139 440.818 208.388C440.818 207.636 440.208 207.027 439.456 207.027C438.704 207.027 438.094 207.636 438.094 208.388C438.094 209.139 438.704 209.749 439.456 209.749Z" fill="#3F3D56"/>
<path opacity="0.1" d="M441.963 269.226C442.715 269.226 443.325 268.617 443.325 267.865C443.325 267.114 442.715 266.504 441.963 266.504C441.211 266.504 440.601 267.114 440.601 267.865C440.601 268.617 441.211 269.226 441.963 269.226Z" fill="black"/>
<path d="M441.963 268.667C442.715 268.667 443.325 268.057 443.325 267.306C443.325 266.554 442.715 265.945 441.963 265.945C441.211 265.945 440.601 266.554 440.601 267.306C440.601 268.057 441.211 268.667 441.963 268.667Z" fill="#3F3D56"/>
<path opacity="0.1" d="M440.818 239.765C441.57 239.765 442.18 239.156 442.18 238.404C442.18 237.652 441.57 237.043 440.818 237.043C440.066 237.043 439.456 237.652 439.456 238.404C439.456 239.156 440.066 239.765 440.818 239.765Z" fill="black"/>
<path d="M440.818 239.21C441.57 239.21 442.18 238.601 442.18 237.849C442.18 237.098 441.57 236.488 440.818 236.488C440.066 236.488 439.456 237.098 439.456 237.849C439.456 238.601 440.066 239.21 440.818 239.21Z" fill="#3F3D56"/>
<path d="M472.215 273.431C472.215 273.431 473.143 274.822 472.215 275.447C471.287 276.073 472.306 277.676 472.306 277.676C472.306 277.676 469.99 279.027 471.009 280.252C472.028 281.477 471.383 286.977 471.383 286.977L468.598 291.61C468.598 291.61 468.765 294.579 468.775 298.592C468.775 304.853 468.406 313.656 466.368 317.668L466.641 350.593C466.641 350.593 456.89 354.157 448.728 353.069L447.517 300.236C447.517 300.236 449.283 270.275 449.933 264.528C450.314 261.544 450.469 258.536 450.398 255.529C450.398 255.529 450.12 246.535 449.187 242.366C449.187 242.366 448.178 224.278 448.077 219.272C448.032 216.877 448.158 209.89 448.299 203.246C448.455 195.981 448.632 189.13 448.632 189.13L446.791 174.566C446.791 174.566 448.632 174.384 449.187 175.12C449.435 175.352 449.706 175.56 449.994 175.74C453.177 177.888 464.406 184.492 464.406 184.492C464.406 184.492 470.621 186.962 472.109 190.501C473.597 194.04 474.631 196.551 475.353 197.559C476.074 198.567 476.468 203.306 476.468 203.306C476.468 203.306 478.606 212.028 480.276 213.505C481.946 214.982 483.146 224.359 483.146 224.359L468.391 235.954C468.391 235.954 467.095 255.242 466.817 255.988C466.54 256.734 472.215 273.431 472.215 273.431Z" fill="white"/>
<path d="M472.775 273.431C472.775 273.431 473.698 274.822 472.775 275.447C471.852 276.073 472.861 277.676 472.861 277.676C472.861 277.676 470.545 279.027 471.564 280.252C472.583 281.477 471.938 286.977 471.938 286.977L469.163 291.61C469.163 291.61 469.33 294.579 469.345 298.592C469.345 304.853 468.976 313.656 466.938 317.668L467.216 350.593C467.216 350.593 457.465 354.157 449.303 353.069L448.097 300.236C448.097 300.236 449.858 270.275 450.514 264.528C450.895 261.544 451.048 258.536 450.973 255.529C450.973 255.529 450.695 246.535 449.767 242.366C449.767 242.366 448.758 224.278 448.652 219.272C448.607 216.877 448.733 209.89 448.874 203.246C449.031 195.981 449.207 189.13 449.207 189.13L446.776 174.369C446.776 174.369 449.207 174.369 449.767 175.12C450.013 175.355 450.284 175.563 450.574 175.74C453.752 177.888 464.981 184.492 464.981 184.492C464.981 184.492 471.181 186.962 472.694 190.501C474.208 194.04 475.216 196.551 475.938 197.559C476.659 198.567 477.053 203.306 477.053 203.306C477.053 203.306 479.192 212.028 480.861 213.505C482.531 214.982 483.737 224.359 483.737 224.359L468.981 235.954C468.981 235.954 467.685 255.242 467.403 255.988C467.12 256.734 472.775 273.431 472.775 273.431Z" fill="white"/>
<path opacity="0.1" d="M455.104 193.41L456.441 197.292L449.424 204.35C449.58 197.085 449.757 190.234 449.757 190.234L447.325 175.478C447.325 175.478 449.757 175.478 450.317 176.229C450.563 176.464 450.834 176.672 451.124 176.849L457.087 194.035L455.104 193.41Z" fill="black"/>
<path d="M454.534 192.296L455.871 196.173L448.859 203.231C449.01 195.966 449.192 189.115 449.192 189.115L446.755 174.354C446.755 174.354 449.192 174.354 449.747 175.105C449.994 175.338 450.265 175.546 450.554 175.725L456.552 192.926L454.534 192.296Z" fill="white"/>
<path opacity="0.1" d="M454.534 153.886C454.536 155.703 454.25 157.508 453.686 159.235C453.592 159.251 453.494 159.247 453.401 159.225C453.307 159.202 453.219 159.161 453.142 159.104C453.005 154.567 450.776 150.302 448.027 146.677C447.253 145.584 446.318 144.615 445.252 143.804C444.173 142.994 442.832 142.615 441.489 142.74C439.976 142.947 438.639 143.975 437.11 144.106C435.092 144.272 433.287 142.876 431.284 142.81C430.47 142.817 429.666 142.998 428.927 143.34C428.189 143.683 427.532 144.18 427.001 144.797C425.948 146.038 425.166 147.486 424.706 149.046C423.913 151.415 423.481 153.89 423.425 156.387C423.399 157.798 423.263 159.568 421.952 160.082C422.051 159.045 421.933 157.998 421.606 157.008C421.278 156.019 420.748 155.109 420.05 154.335L420.02 154.3C420.02 154.158 420.02 154.027 420.02 153.886C420.02 149.311 421.838 144.923 425.076 141.688C428.313 138.452 432.704 136.635 437.282 136.635C441.86 136.635 446.251 138.452 449.488 141.688C452.725 144.923 454.544 149.311 454.544 153.886H454.534Z" fill="black"/>
<path d="M444.445 126.497C441.824 125.264 438.842 125.031 436.061 125.841C434.664 126.255 433.347 126.925 431.93 127.263C428.903 127.994 425.372 127.202 422.774 128.972C421.331 129.98 420.464 131.573 419.656 133.126L417.639 136.962C416.539 139.065 415.429 141.202 414.97 143.516C414.511 145.83 414.788 148.421 416.256 150.287C417.321 151.638 418.905 152.49 420.065 153.765C420.762 154.543 421.29 155.456 421.617 156.448C421.943 157.44 422.061 158.488 421.962 159.527C423.273 159.023 423.404 157.244 423.435 155.832C423.491 153.335 423.923 150.861 424.716 148.492C425.176 146.931 425.958 145.483 427.011 144.242C427.542 143.624 428.199 143.127 428.937 142.784C429.676 142.44 430.479 142.258 431.294 142.251C433.312 142.321 435.123 143.718 437.12 143.546C438.634 143.42 439.976 142.392 441.499 142.185C442.842 142.058 444.185 142.438 445.262 143.249C446.329 144.058 447.263 145.027 448.032 146.123C450.786 149.752 453.021 153.997 453.152 158.549C453.722 158.963 454.544 158.418 454.827 157.773C455.109 157.128 455.119 156.371 455.477 155.756C455.891 155.046 456.683 154.662 457.303 154.128C458.877 152.772 459.271 150.488 459.21 148.416C459.15 146.344 458.746 144.242 459.14 142.205C459.377 140.96 459.911 139.786 460.204 138.55C460.497 137.315 460.532 135.929 459.841 134.865C458.832 133.307 456.708 132.995 454.857 132.849C452.753 132.667 450.872 132.899 449.53 131.13C448.898 130.207 448.19 129.341 447.411 128.538C447.134 128.271 444.445 126.608 444.445 126.497Z" fill="#512E4E"/>
<path opacity="0.1" d="M389.601 232.808L384.335 223.073L382.665 238.096C382.665 238.096 383.593 244.771 383.407 245.794C383.22 246.818 387.21 255.993 387.21 255.993C387.21 255.993 400.391 279.46 405.774 280.665L423.934 267.679L419.112 261.559C419.112 261.559 417.442 260.908 417.023 261.559C417.023 261.559 408.064 246.162 407.141 245.053C406.218 243.944 406.394 241.711 406.394 241.711C406.394 241.711 405.002 240.229 405.466 238.837C405.93 237.446 402.803 232.627 402.803 232.627L405.678 229.94L389.601 232.808Z" fill="black"/>
<path d="M384.612 221.959L383.22 223.073L381.55 238.096C381.55 238.096 382.478 244.771 382.292 245.794C382.105 246.818 386.1 255.993 386.1 255.993C386.1 255.993 399.277 279.46 404.659 280.665L422.85 267.679L418.022 261.559C418.022 261.559 416.352 260.908 415.934 261.559C415.934 261.559 406.98 246.162 406.051 245.053C405.123 243.944 405.31 241.711 405.31 241.711C405.31 241.711 403.918 240.229 404.382 238.837C404.846 237.446 401.688 232.627 401.688 232.627L404.563 229.94L384.612 221.959Z" fill="white"/>
<path opacity="0.1" d="M471.009 280.832C472.018 282.057 471.383 287.562 471.383 287.562L468.598 292.164C468.598 292.164 468.765 295.139 468.775 299.152L464.093 300.614C463.67 300.746 463.22 300.775 462.783 300.698C462.346 300.621 461.934 300.441 461.58 300.173C461.227 299.904 460.943 299.555 460.751 299.155C460.56 298.755 460.468 298.315 460.481 297.871L461.294 271.858L472.215 276.027C471.287 276.672 472.306 278.255 472.306 278.255C472.306 278.255 469.99 279.607 471.009 280.832Z" fill="black"/>
<path d="M471.564 280.277C472.573 281.497 471.937 287.002 471.937 287.002L469.163 291.61C469.163 291.61 469.329 294.579 469.345 298.592L464.578 300.079C464.164 300.209 463.725 300.238 463.297 300.163C462.87 300.089 462.467 299.913 462.121 299.651C461.775 299.389 461.497 299.048 461.31 298.657C461.124 298.266 461.033 297.836 461.046 297.402L461.859 271.298L472.775 275.478C471.842 276.123 472.861 277.706 472.861 277.706C472.861 277.706 470.545 279.052 471.564 280.277Z" fill="white"/>
<path d="M475.186 267.865C475.186 267.865 474.445 272.599 472.588 272.876C470.732 273.154 469.9 280.534 468.048 280.277C466.197 280.02 467.423 273.411 467.488 272.13C467.554 270.85 465.47 265.546 467.024 264.341C468.578 263.137 473.522 264.341 473.522 264.341L475.186 267.865Z" fill="#CF6F80"/>
<path opacity="0.1" d="M479.111 231.416L482.607 224.359C482.607 224.359 484.004 229.738 484.004 232.611C484.004 235.485 485.951 235.767 485.951 235.767C485.951 235.767 488.085 238.288 486.96 240.128C485.835 241.968 485.386 246.525 485.386 246.525C485.386 246.525 485.754 255.242 484.085 256.447C482.415 257.651 482.042 260.53 482.042 260.53C482.042 260.53 478.98 266 479.075 267.301C479.171 268.601 474.808 277.408 474.808 277.408C474.808 277.408 476.942 266.464 464.507 261.735C464.507 261.735 464.411 258.025 465.339 257.006C466.267 255.988 467.715 255.494 466.807 250.372C465.899 245.25 466.545 239.074 466.545 237.839C466.545 236.604 469.33 228.906 469.33 228.906L479.111 231.416Z" fill="black"/>
<path d="M480.664 223.35L483.721 224.359C483.721 224.359 485.119 229.738 485.119 232.611C485.119 235.485 487.066 235.767 487.066 235.767C487.066 235.767 489.2 238.288 488.075 240.128C486.95 241.968 486.496 246.525 486.496 246.525C486.496 246.525 486.869 255.242 485.199 256.447C483.53 257.652 483.182 260.53 483.182 260.53C483.182 260.53 480.12 266 480.215 267.301C480.311 268.601 475.943 277.408 475.943 277.408C475.943 277.408 478.077 266.464 465.642 261.735C465.642 261.735 465.551 258.025 466.479 257.006C467.408 255.988 468.855 255.494 467.947 250.372C467.039 245.25 467.685 239.074 467.685 237.839C467.685 236.604 470.47 228.906 470.47 228.906L480.664 223.35Z" fill="white"/>
<path opacity="0.1" d="M413.129 406.285C413.129 406.285 418.002 403.225 421.2 405.448C424.398 407.671 413.129 406.285 413.129 406.285Z" fill="black"/>
<path opacity="0.1" d="M451.003 396.822C451.003 396.822 455.316 396.268 458.938 400.165C462.56 404.062 451.003 396.822 451.003 396.822Z" fill="black"/>
<g opacity="0.1">
<path opacity="0.1" d="M457.303 153.019C456.683 153.559 455.886 153.937 455.472 154.648C455.119 155.258 455.109 156.014 454.827 156.664C454.544 157.314 453.722 157.854 453.147 157.44C453.016 152.903 450.781 148.643 448.032 145.014C447.263 143.92 446.329 142.952 445.262 142.145C444.183 141.332 442.839 140.951 441.494 141.076C439.981 141.283 438.649 142.311 437.12 142.442C435.103 142.609 433.292 141.212 431.289 141.147C430.475 141.153 429.672 141.334 428.934 141.676C428.197 142.019 427.541 142.516 427.011 143.133C425.958 144.374 425.176 145.822 424.716 147.383C423.923 149.752 423.491 152.226 423.435 154.723C423.404 156.13 423.273 157.884 421.972 158.408C422.002 158.782 422.002 159.158 421.972 159.533C423.288 159.028 423.42 157.249 423.45 155.837C423.507 153.34 423.938 150.866 424.731 148.497C425.191 146.936 425.973 145.489 427.026 144.247C427.556 143.63 428.212 143.133 428.95 142.789C429.688 142.446 430.49 142.264 431.304 142.256C433.322 142.327 435.138 143.723 437.136 143.552C438.649 143.426 439.991 142.397 441.509 142.19C442.854 142.064 444.198 142.443 445.277 143.254C446.344 144.063 447.278 145.032 448.047 146.128C450.796 149.757 453.031 154.002 453.162 158.555C453.737 158.968 454.559 158.423 454.842 157.778C455.124 157.133 455.134 156.377 455.487 155.762C455.901 155.051 456.698 154.668 457.319 154.133C458.892 152.777 459.286 150.493 459.225 148.421C459.225 148.356 459.225 148.295 459.225 148.23C459.124 150.035 458.645 151.865 457.303 153.019Z" fill="black"/>
<path opacity="0.1" d="M420.06 152.666C418.905 151.391 417.321 150.534 416.256 149.183C415.357 147.99 414.845 146.551 414.788 145.059C414.63 146.925 415.151 148.785 416.256 150.297C417.321 151.648 418.905 152.5 420.06 153.775C421.176 155.022 421.846 156.604 421.967 158.272C422.043 157.258 421.913 156.238 421.585 155.275C421.258 154.312 420.739 153.424 420.06 152.666Z" fill="black"/>
<path opacity="0.1" d="M460.204 137.441C459.906 138.677 459.377 139.851 459.135 141.096C458.989 141.938 458.937 142.794 458.978 143.647C458.995 143.165 459.047 142.685 459.135 142.211C459.377 140.965 459.906 139.791 460.204 138.556C460.375 137.874 460.431 137.169 460.371 136.469C460.338 136.796 460.282 137.121 460.204 137.441Z" fill="black"/>
</g>
<path opacity="0.1" d="M66.9555 422.906C94.1023 422.906 116.109 419.374 116.109 415.016C116.109 410.659 94.1023 407.127 66.9555 407.127C39.8088 407.127 17.802 410.659 17.802 415.016C17.802 419.374 39.8088 422.906 66.9555 422.906Z" fill="#348C6C"/>
<path d="M68.5395 263.873H65.3766V335.041H68.5395V263.873Z" fill="#535461"/>
<path d="M88.4199 334.829L88.2181 338.035L87.9407 342.573L87.8246 344.458L87.5422 348.995L87.4211 350.881L87.1436 355.418L83.9505 406.875C83.8143 409.088 82.8382 411.167 81.2213 412.687C79.6043 414.206 77.4682 415.052 75.2487 415.052H58.6675C56.4419 415.053 54.3002 414.202 52.6821 412.675C51.064 411.148 50.092 409.06 49.9657 406.839L46.7726 355.383L46.4951 350.845L46.3791 348.96L46.0916 344.423L45.9755 342.537L45.6981 338L45.4963 334.794C45.4614 334.179 45.552 333.564 45.7626 332.986C45.9731 332.407 46.2993 331.877 46.7212 331.429C47.143 330.98 47.6518 330.622 48.2166 330.377C48.7813 330.131 49.3902 330.003 50.0061 330H83.9152C84.5338 330.003 85.1453 330.133 85.7119 330.381C86.2785 330.629 86.7884 330.991 87.2103 331.443C87.6321 331.895 87.957 332.429 88.165 333.011C88.373 333.593 88.4598 334.212 88.4199 334.829Z" fill="#3F3D56"/>
<path d="M88.2181 338.03L87.9356 342.557H45.9755L45.693 338.03H88.2181Z" fill="#9D9CB5"/>
<path d="M87.8196 344.443L87.5421 348.97H46.374L46.0916 344.443H87.8196Z" fill="#9D9CB5"/>
<path d="M87.421 350.86L87.1436 355.383H46.7725L46.49 350.86H87.421Z" fill="#9D9CB5"/>
<path d="M40.8856 290.551C59.3081 303.87 66.9808 324.701 66.9808 324.701C66.9808 324.701 44.785 323.94 26.3575 310.621C7.92995 297.302 0.247192 276.486 0.247192 276.486C0.247192 276.486 22.443 277.232 40.8856 290.551Z" fill="#348C6C"/>
<path d="M0.247192 276.486C0.247192 276.486 23.2854 289.266 30.6756 299.847C38.0658 310.429 66.9606 324.711 66.9606 324.711" stroke="#535461" stroke-width="2" stroke-miterlimit="10"/>
<path d="M52.7553 263.721C62.7837 270.966 66.9606 282.304 66.9606 282.304C66.9606 282.304 54.8538 281.89 44.8506 274.646C34.8473 267.402 30.6453 256.059 30.6453 256.059C30.6453 256.059 42.7319 256.472 52.7553 263.721Z" fill="#348C6C"/>
<path d="M30.6453 256.059C30.6453 256.059 43.1859 263.016 47.2114 268.773C51.2369 274.53 66.9606 282.304 66.9606 282.304" stroke="#535461" stroke-width="2" stroke-miterlimit="10"/>
<path d="M81.5291 281.729C70.0125 294.378 67.576 310.908 67.576 310.908C67.576 310.908 83.8143 306.925 95.3207 294.272C106.827 281.618 109.274 265.093 109.274 265.093C109.274 265.093 93.0457 269.08 81.5291 281.729Z" fill="#348C6C"/>
<path d="M109.284 265.098C109.284 265.098 94.2816 278.064 90.4679 286.997C86.6543 295.93 67.576 310.908 67.576 310.908" stroke="#535461" stroke-width="2" stroke-miterlimit="10"/>
</g>
<defs>
<linearGradient id="paint0_linear" x1="234.836" y1="421.232" x2="234.836" y2="130.021" gradientUnits="userSpaceOnUse">
<stop stop-color="#808080" stop-opacity="0.25"/>
<stop offset="0.54" stop-color="#808080" stop-opacity="0.12"/>
<stop offset="1" stop-color="#808080" stop-opacity="0.1"/>
</linearGradient>
<linearGradient id="paint1_linear" x1="95986.2" y1="272912" x2="95986.2" y2="82037" gradientUnits="userSpaceOnUse">
<stop stop-color="#808080" stop-opacity="0.25"/>
<stop offset="0.54" stop-color="#808080" stop-opacity="0.12"/>
<stop offset="1" stop-color="#808080" stop-opacity="0.1"/>
</linearGradient>
<clipPath id="clip0">
<rect width="589" height="435" fill="white"/>
</clipPath>
</defs>
</svg>
