<svg width="221" height="58" viewBox="0 0 221 58" fill="none" xmlns="http://www.w3.org/2000/svg">
<path d="M49.05 8.75C49.15 8.81667 49.2 8.91667 49.2 9.05C49.2 9.15 49.1 9.3 48.9 9.5C47.8 10.7 46.8167 12.0833 45.95 13.65C45.0833 15.1833 44.35 16.8667 43.75 18.7C43.15 20.5333 42.6833 22.4667 42.35 24.5C42.0167 26.5333 41.85 28.6167 41.85 30.75C41.85 32.35 42.0333 33.6 42.4 34.5C42.8 35.3667 43.4833 35.8 44.45 35.8C45.7833 35.8 47.05 34.8667 48.25 33C48.35 32.9333 48.45 32.9333 48.55 33C48.65 33.0667 48.6833 33.1667 48.65 33.3C47.7833 34.7 46.8167 35.8333 45.75 36.7C44.7167 37.5667 43.75 38 42.85 38C41.5167 38 40.5 37.4833 39.8 36.45C39.1333 35.4167 38.8 33.95 38.8 32.05C38.8 29.3833 39.1 26.6667 39.7 23.9C38.1333 23.9 36.5833 23.9167 35.05 23.95C33.55 23.9833 32.0833 24.0333 30.65 24.1C29.55 25.2667 28.4833 26.3667 27.45 27.4C26.45 28.4333 25.4667 29.3833 24.5 30.25C21.8333 32.6833 19.0833 34.5833 16.25 35.95C13.45 37.3167 10.3667 38 7 38C5.2 38 3.75 37.6 2.65 36.8C1.58333 36 0.866667 34.9833 0.5 33.75C0.166667 32.5167 0.183333 31.1667 0.55 29.7C0.916667 28.2333 1.65 26.8167 2.75 25.45C2.85 25.3833 2.96667 25.4 3.1 25.5C3.23333 25.5667 3.28333 25.7167 3.25 25.95C2.48333 26.7833 2.05 27.75 1.95 28.85C1.88333 29.9167 2.11667 30.9333 2.65 31.9C3.21667 32.8333 4.08333 33.6333 5.25 34.3C6.41667 34.9333 7.88333 35.25 9.65 35.25C12.4833 35.25 15.1333 34.6667 17.6 33.5C20.1 32.3333 22.45 30.75 24.65 28.75C25.4167 28.0833 26.1833 27.3667 26.95 26.6C27.7167 25.8333 28.5167 25.0333 29.35 24.2C28.1833 24.2667 27.0833 24.35 26.05 24.45C25.0167 24.5167 24.05 24.6167 23.15 24.75C22.9833 24.7167 22.95 24.6333 23.05 24.5C23.15 24.3667 23.3 24.2333 23.5 24.1C23.7 23.9333 23.9333 23.8 24.2 23.7C24.5 23.5667 24.7833 23.4833 25.05 23.45C25.4833 23.4167 26.15 23.4 27.05 23.4C27.9833 23.3667 29.0333 23.3333 30.2 23.3C32.0667 21.3667 34.1333 19.2833 36.4 17.05C38.7 14.7833 41.4167 12.4167 44.55 9.95C42.3167 9.21667 40 8.61667 37.6 8.15C35.2333 7.65 32.95 7.4 30.75 7.4C28.25 7.4 26.2 8.1 24.6 9.5C23 10.8667 22.0167 13.0333 21.65 16C21.5833 16.1667 21.4833 16.2333 21.35 16.2C21.25 16.1667 21.1833 16.0667 21.15 15.9C21.55 12.6333 22.7667 10.1333 24.8 8.4C26.8333 6.66666 29.4667 5.8 32.7 5.8C34.0667 5.8 35.5 5.9 37 6.1C38.5 6.26667 39.9667 6.5 41.4 6.8C42.8667 7.06666 44.25 7.38333 45.55 7.75C46.8833 8.08333 48.05 8.41667 49.05 8.75ZM39.85 23.25C40.3833 20.85 41.1333 18.5167 42.1 16.25C43.0667 13.9833 44.25 11.9 45.65 10C42.7167 12.3667 40.1 14.6667 37.8 16.9C35.5 19.1333 33.3833 21.2667 31.45 23.3C33.05 23.2667 34.6167 23.25 36.15 23.25C37.7167 23.25 38.95 23.25 39.85 23.25ZM64.4324 34.5C64.4991 34.4333 64.5824 34.45 64.6824 34.55C64.7824 34.6167 64.8158 34.7167 64.7824 34.85C64.1824 35.6833 63.4824 36.4167 62.6824 37.05C61.9158 37.6833 61.1491 38 60.3824 38C59.8158 38 59.3658 37.8167 59.0324 37.45C58.7324 37.0833 58.5824 36.6 58.5824 36C58.5824 34.8333 58.7824 33.5667 59.1824 32.2C59.6158 30.8333 60.1824 29.45 60.8824 28.05C60.9824 27.8167 61.0324 27.5667 61.0324 27.3C61.0324 26.9667 60.8824 26.8 60.5824 26.8C59.3491 26.8 57.9824 27.65 56.4824 29.35C54.9824 31.0167 53.5991 33.6833 52.3324 37.35C52.2991 37.45 52.1824 37.55 51.9824 37.65C51.8158 37.7167 51.6158 37.7833 51.3824 37.85C51.1491 37.8833 50.9158 37.9167 50.6824 37.95C50.4491 37.9833 50.2658 38 50.1324 38C49.9658 38 49.8324 37.9667 49.7324 37.9C49.6658 37.8333 49.6658 37.7167 49.7324 37.55C50.2991 36.1167 50.8658 34.55 51.4324 32.85C52.0324 31.1167 52.5491 29.3833 52.9824 27.65C53.0824 27.3167 53.0991 27.0833 53.0324 26.95C52.9658 26.7833 52.8491 26.7 52.6824 26.7C52.3158 26.7 51.9658 26.8667 51.6324 27.2C51.2991 27.5 50.9991 27.8333 50.7324 28.2C50.6324 28.2667 50.5324 28.25 50.4324 28.15C50.3658 28.05 50.3491 27.95 50.3824 27.85C50.5491 27.6167 50.7658 27.35 51.0324 27.05C51.3324 26.75 51.6658 26.4667 52.0324 26.2C52.3991 25.9 52.7824 25.6667 53.1824 25.5C53.5824 25.3 53.9824 25.2 54.3824 25.2C54.9491 25.2 55.3158 25.3833 55.4824 25.75C55.6824 26.0833 55.7324 26.5 55.6324 27C55.4658 27.7333 55.2824 28.4333 55.0824 29.1C54.9158 29.7333 54.6991 30.45 54.4324 31.25C54.8324 30.5167 55.3158 29.8 55.8824 29.1C56.4824 28.3667 57.1324 27.7167 57.8324 27.15C58.5658 26.55 59.3491 26.0833 60.1824 25.75C61.0158 25.3833 61.8991 25.2 62.8324 25.2C63.2324 25.2 63.5324 25.3 63.7324 25.5C63.9658 25.7 64.0824 25.9333 64.0824 26.2C64.0824 26.6667 63.9658 27.0833 63.7324 27.45C63.0324 28.7167 62.4324 30.0333 61.9324 31.4C61.4658 32.7333 61.2324 33.9333 61.2324 35C61.2324 35.8667 61.5158 36.3 62.0824 36.3C62.4491 36.3 62.8158 36.15 63.1824 35.85C63.5491 35.55 63.9658 35.1 64.4324 34.5ZM80.0457 34.85C80.1124 34.7833 80.1957 34.7833 80.2957 34.85C80.3957 34.9167 80.429 35.0167 80.3957 35.15C79.7957 36.0167 79.129 36.7167 78.3957 37.25C77.6624 37.75 76.9624 38 76.2957 38C75.529 38 75.029 37.4667 74.7957 36.4C74.5957 35.3 74.7124 34 75.1457 32.5C74.2457 33.9333 73.2624 35.1667 72.1957 36.2C71.1624 37.2 70.0624 37.8 68.8957 38C68.0957 38 67.479 37.6333 67.0457 36.9C66.6124 36.1667 66.3957 35.3167 66.3957 34.35C66.3957 33.25 66.6624 32.1667 67.1957 31.1C67.729 30 68.429 29.0167 69.2957 28.15C70.1957 27.2833 71.179 26.5833 72.2457 26.05C73.3457 25.4833 74.4457 25.2 75.5457 25.2C76.7124 25.2 77.629 25.4833 78.2957 26.05C78.629 25.8167 79.0457 25.6167 79.5457 25.45C80.079 25.2833 80.5457 25.2 80.9457 25.2C81.079 25.2 81.1457 25.2833 81.1457 25.45C80.379 26.3833 79.7124 27.4167 79.1457 28.55C78.6124 29.65 78.1957 30.7167 77.8957 31.75C77.5957 32.75 77.4124 33.65 77.3457 34.45C77.279 35.25 77.3457 35.8 77.5457 36.1C77.7124 36.3 77.9957 36.3667 78.3957 36.3C78.7957 36.2 79.3457 35.7167 80.0457 34.85ZM70.4457 36.15C70.8457 36.15 71.329 35.9 71.8957 35.4C72.4957 34.9 73.1124 34.2333 73.7457 33.4C74.379 32.5667 74.9957 31.6333 75.5957 30.6C76.229 29.5667 76.779 28.5167 77.2457 27.45C77.1124 27.0167 76.7957 26.6667 76.2957 26.4C75.829 26.1333 75.279 26 74.6457 26C73.879 26 73.1624 26.2 72.4957 26.6C71.829 26.9667 71.2457 27.5 70.7457 28.2C70.279 28.8667 69.8957 29.6833 69.5957 30.65C69.329 31.5833 69.1957 32.6167 69.1957 33.75C69.1957 34.4833 69.3124 35.0667 69.5457 35.5C69.8124 35.9333 70.1124 36.15 70.4457 36.15ZM96.9031 34.5C96.9698 34.4333 97.0531 34.45 97.1531 34.55C97.2531 34.6167 97.2865 34.7167 97.2531 34.85C96.6531 35.6833 95.9531 36.4167 95.1531 37.05C94.3865 37.6833 93.6198 38 92.8531 38C92.2865 38 91.8365 37.8167 91.5031 37.45C91.2031 37.0833 91.0531 36.6 91.0531 36C91.0531 34.8333 91.2531 33.5667 91.6531 32.2C92.0865 30.8333 92.6531 29.45 93.3531 28.05C93.4531 27.8167 93.5031 27.5667 93.5031 27.3C93.5031 26.9667 93.3531 26.8 93.0531 26.8C91.8198 26.8 90.4531 27.65 88.9531 29.35C87.4531 31.0167 86.0698 33.6833 84.8031 37.35C84.7698 37.45 84.6531 37.55 84.4531 37.65C84.2865 37.7167 84.0865 37.7833 83.8531 37.85C83.6198 37.8833 83.3865 37.9167 83.1531 37.95C82.9198 37.9833 82.7365 38 82.6031 38C82.4365 38 82.3031 37.9667 82.2031 37.9C82.1365 37.8333 82.1365 37.7167 82.2031 37.55C82.7698 36.1167 83.3365 34.55 83.9031 32.85C84.5031 31.1167 85.0198 29.3833 85.4531 27.65C85.5531 27.3167 85.5698 27.0833 85.5031 26.95C85.4365 26.7833 85.3198 26.7 85.1531 26.7C84.7865 26.7 84.4365 26.8667 84.1031 27.2C83.7698 27.5 83.4698 27.8333 83.2031 28.2C83.1031 28.2667 83.0031 28.25 82.9031 28.15C82.8365 28.05 82.8198 27.95 82.8531 27.85C83.0198 27.6167 83.2365 27.35 83.5031 27.05C83.8031 26.75 84.1365 26.4667 84.5031 26.2C84.8698 25.9 85.2531 25.6667 85.6531 25.5C86.0531 25.3 86.4531 25.2 86.8531 25.2C87.4198 25.2 87.7865 25.3833 87.9531 25.75C88.1531 26.0833 88.2031 26.5 88.1031 27C87.9365 27.7333 87.7531 28.4333 87.5531 29.1C87.3865 29.7333 87.1698 30.45 86.9031 31.25C87.3031 30.5167 87.7865 29.8 88.3531 29.1C88.9531 28.3667 89.6031 27.7167 90.3031 27.15C91.0365 26.55 91.8198 26.0833 92.6531 25.75C93.4865 25.3833 94.3698 25.2 95.3031 25.2C95.7031 25.2 96.0031 25.3 96.2031 25.5C96.4365 25.7 96.5531 25.9333 96.5531 26.2C96.5531 26.6667 96.4365 27.0833 96.2031 27.45C95.5031 28.7167 94.9031 30.0333 94.4031 31.4C93.9365 32.7333 93.7031 33.9333 93.7031 35C93.7031 35.8667 93.9865 36.3 94.5531 36.3C94.9198 36.3 95.2865 36.15 95.6531 35.85C96.0198 35.55 96.4365 35.1 96.9031 34.5ZM126.666 8.3C128.3 9.2 129.8 10.2833 131.166 11.55C132.566 12.7833 133.766 14.15 134.766 15.65C135.766 17.15 136.533 18.7167 137.066 20.35C137.633 21.9833 137.916 23.6167 137.916 25.25C137.916 27.0833 137.566 28.7833 136.866 30.35C136.166 31.9167 135.183 33.2667 133.916 34.4C132.65 35.5333 131.116 36.4167 129.316 37.05C127.55 37.6833 125.583 38 123.416 38C122.15 38 120.966 37.9333 119.866 37.8C118.766 37.6333 117.716 37.4333 116.716 37.2C115.75 36.9333 114.8 36.65 113.866 36.35C112.966 36.0167 112.066 35.7 111.166 35.4C109.9 36.3 108.483 36.9667 106.916 37.4C105.383 37.8 103.666 38 101.766 38C100.7 38 99.9331 37.8833 99.4664 37.65C99.0331 37.3833 98.8164 37.0333 98.8164 36.6C98.8164 36.1667 98.9664 35.7 99.2664 35.2C99.5997 34.6667 100.05 34.1833 100.616 33.75C101.216 33.3167 101.9 32.9667 102.666 32.7C103.466 32.4 104.35 32.25 105.316 32.25C106.616 32.25 107.8 32.3667 108.866 32.6C109.966 32.8333 111.05 33.1333 112.116 33.5C113.283 32.1667 114.383 30.3667 115.416 28.1C116.45 25.8333 117.533 22.9333 118.666 19.4C119.333 17.3333 120.05 15.5 120.816 13.9C121.616 12.3 122.533 10.9167 123.566 9.75C122.233 9.08333 120.816 8.58333 119.316 8.25C117.85 7.88333 116.316 7.7 114.716 7.7C113.25 7.7 111.966 7.91667 110.866 8.35C109.8 8.78333 108.9 9.36666 108.166 10.1C107.433 10.8333 106.85 11.6833 106.416 12.65C105.983 13.6167 105.683 14.6333 105.516 15.7C105.45 15.7667 105.366 15.7833 105.266 15.75C105.166 15.7167 105.116 15.6333 105.116 15.5C105.25 14.1333 105.616 12.8667 106.216 11.7C106.816 10.5 107.616 9.46667 108.616 8.6C109.65 7.73333 110.866 7.05 112.266 6.55C113.666 6.05 115.25 5.8 117.016 5.8C118.55 5.8 120.033 5.98333 121.466 6.35C122.9 6.68333 124.283 7.16667 125.616 7.8C126.483 7.1 127.416 6.51667 128.416 6.05C129.45 5.58333 130.6 5.21666 131.866 4.95C131.966 4.95 132.016 5.01667 132.016 5.15C132.016 5.25 131.966 5.33333 131.866 5.4C129.9 5.93333 128.166 6.9 126.666 8.3ZM103.466 37.1C104.866 37.1 106.116 36.9667 107.216 36.7C108.35 36.4 109.4 35.8833 110.366 35.15C109.266 34.8167 108.133 34.5333 106.966 34.3C105.8 34.0667 104.516 33.95 103.116 33.95C102.35 33.95 101.783 34.0833 101.416 34.35C101.083 34.6167 100.916 34.9833 100.916 35.45C100.916 35.95 101.116 36.35 101.516 36.65C101.95 36.95 102.6 37.1 103.466 37.1ZM125.866 36.35C129.066 36.35 131.416 35.5167 132.916 33.85C134.416 32.15 135.166 29.8 135.166 26.8C135.166 25.2333 134.916 23.6667 134.416 22.1C133.916 20.5333 133.216 19.0333 132.316 17.6C131.416 16.1667 130.333 14.8333 129.066 13.6C127.8 12.3667 126.383 11.3 124.816 10.4C123.316 12.4333 122.033 15.0833 120.966 18.35C119.8 22.05 118.583 25.1667 117.316 27.7C116.083 30.2 114.666 32.25 113.066 33.85C113.9 34.15 114.75 34.45 115.616 34.75C116.516 35.0167 117.483 35.2833 118.516 35.55C119.55 35.7833 120.666 35.9833 121.866 36.15C123.066 36.2833 124.4 36.35 125.866 36.35ZM139.386 37.55C140.886 31.8167 142.602 26.65 144.536 22.05C146.502 17.45 148.569 13.5333 150.736 10.3C152.902 7.06667 155.086 4.58333 157.286 2.85C159.519 1.08333 161.636 0.199998 163.636 0.199998C164.469 0.199998 165.119 0.399998 165.586 0.799999C166.086 1.16667 166.419 1.63333 166.586 2.2C166.786 2.73333 166.819 3.31666 166.686 3.95C166.552 4.58333 166.302 5.15 165.936 5.65C165.836 5.75 165.736 5.78333 165.636 5.75C165.536 5.71667 165.486 5.63333 165.486 5.5C165.652 4.83333 165.469 4.2 164.936 3.6C164.402 3 163.552 2.7 162.386 2.7C160.586 2.7 158.869 3.18333 157.236 4.15C155.636 5.11667 154.069 6.73333 152.536 9C151.002 11.2333 149.502 14.2167 148.036 17.95C146.569 21.65 145.069 26.2667 143.536 31.8C144.036 30.9 144.602 30.05 145.236 29.25C145.902 28.45 146.619 27.75 147.386 27.15C148.152 26.55 148.969 26.0833 149.836 25.75C150.702 25.3833 151.602 25.2 152.536 25.2C152.936 25.2 153.219 25.3 153.386 25.5C153.586 25.7 153.686 25.9333 153.686 26.2C153.686 26.6333 153.536 27.1167 153.236 27.65C152.536 28.8833 151.969 30.15 151.536 31.45C151.102 32.75 150.886 33.9333 150.886 35C150.886 35.4667 150.936 35.85 151.036 36.15C151.136 36.45 151.319 36.6 151.586 36.6C151.919 36.6 152.286 36.4333 152.686 36.1C153.086 35.7333 153.419 35.3333 153.686 34.9C153.786 34.8333 153.886 34.85 153.986 34.95C154.086 35.0167 154.119 35.1 154.086 35.2C153.652 35.9333 153.036 36.5833 152.236 37.15C151.469 37.7167 150.769 38 150.136 38C149.569 38 149.102 37.85 148.736 37.55C148.369 37.2167 148.186 36.6667 148.186 35.9C148.186 35.3 148.236 34.6667 148.336 34C148.469 33.3 148.619 32.6167 148.786 31.95C148.986 31.2833 149.202 30.6333 149.436 30C149.702 29.3333 149.986 28.7333 150.286 28.2C150.452 27.8 150.536 27.5167 150.536 27.35C150.536 27.05 150.369 26.9 150.036 26.9C149.402 26.9 148.719 27.15 147.986 27.65C147.252 28.1167 146.536 28.8 145.836 29.7C145.136 30.5667 144.452 31.6167 143.786 32.85C143.152 34.0833 142.602 35.45 142.136 36.95C142.069 37.1833 141.802 37.4167 141.336 37.65C140.869 37.8833 140.352 38 139.786 38C139.452 38 139.319 37.85 139.386 37.55ZM169.596 34.85C169.663 34.7833 169.746 34.7833 169.846 34.85C169.946 34.9167 169.98 35.0167 169.946 35.15C169.346 36.0167 168.68 36.7167 167.946 37.25C167.213 37.75 166.513 38 165.846 38C165.08 38 164.58 37.4667 164.346 36.4C164.146 35.3 164.263 34 164.696 32.5C163.796 33.9333 162.813 35.1667 161.746 36.2C160.713 37.2 159.613 37.8 158.446 38C157.646 38 157.03 37.6333 156.596 36.9C156.163 36.1667 155.946 35.3167 155.946 34.35C155.946 33.25 156.213 32.1667 156.746 31.1C157.28 30 157.98 29.0167 158.846 28.15C159.746 27.2833 160.73 26.5833 161.796 26.05C162.896 25.4833 163.996 25.2 165.096 25.2C166.263 25.2 167.18 25.4833 167.846 26.05C168.18 25.8167 168.596 25.6167 169.096 25.45C169.63 25.2833 170.096 25.2 170.496 25.2C170.63 25.2 170.696 25.2833 170.696 25.45C169.93 26.3833 169.263 27.4167 168.696 28.55C168.163 29.65 167.746 30.7167 167.446 31.75C167.146 32.75 166.963 33.65 166.896 34.45C166.83 35.25 166.896 35.8 167.096 36.1C167.263 36.3 167.546 36.3667 167.946 36.3C168.346 36.2 168.896 35.7167 169.596 34.85ZM159.996 36.15C160.396 36.15 160.88 35.9 161.446 35.4C162.046 34.9 162.663 34.2333 163.296 33.4C163.93 32.5667 164.546 31.6333 165.146 30.6C165.78 29.5667 166.33 28.5167 166.796 27.45C166.663 27.0167 166.346 26.6667 165.846 26.4C165.38 26.1333 164.83 26 164.196 26C163.43 26 162.713 26.2 162.046 26.6C161.38 26.9667 160.796 27.5 160.296 28.2C159.83 28.8667 159.446 29.6833 159.146 30.65C158.88 31.5833 158.746 32.6167 158.746 33.75C158.746 34.4833 158.863 35.0667 159.096 35.5C159.363 35.9333 159.663 36.15 159.996 36.15ZM177.554 26.65C177.554 27.15 177.504 27.7167 177.404 28.35C177.304 28.9833 177.171 29.6333 177.004 30.3C177.671 28.7 178.404 27.45 179.204 26.55C180.004 25.65 180.871 25.2 181.804 25.2C182.304 25.2 182.687 25.3167 182.954 25.55C183.221 25.7833 183.354 26.0833 183.354 26.45C183.354 26.7833 183.221 27.2167 182.954 27.75C182.721 28.2833 182.521 28.65 182.354 28.85C182.287 28.8833 182.221 28.8833 182.154 28.85C182.087 28.7833 182.054 28.7167 182.054 28.65C182.054 28.4167 181.954 28.2167 181.754 28.05C181.587 27.8833 181.321 27.8 180.954 27.8C179.787 27.8 178.721 28.6 177.754 30.2C176.821 31.7667 175.954 34.0333 175.154 37C175.121 37.1667 175.004 37.3167 174.804 37.45C174.604 37.55 174.371 37.65 174.104 37.75C173.871 37.8167 173.621 37.8833 173.354 37.95C173.087 37.9833 172.854 38 172.654 38C172.287 38 172.187 37.8 172.354 37.4C172.654 36.7 172.937 35.95 173.204 35.15C173.504 34.3167 173.771 33.4833 174.004 32.65C174.237 31.8167 174.437 31.0167 174.604 30.25C174.771 29.45 174.904 28.7167 175.004 28.05C175.071 27.55 175.087 27.1667 175.054 26.9C175.054 26.6333 174.921 26.5 174.654 26.5C174.321 26.5 173.971 26.65 173.604 26.95C173.271 27.2167 172.954 27.5667 172.654 28C172.521 28.1 172.387 28.1167 172.254 28.05C172.154 27.95 172.137 27.8333 172.204 27.7C172.404 27.4333 172.637 27.1667 172.904 26.9C173.204 26.6 173.521 26.3333 173.854 26.1C174.221 25.8333 174.587 25.6167 174.954 25.45C175.354 25.2833 175.754 25.2 176.154 25.2C176.687 25.2 177.054 25.3333 177.254 25.6C177.454 25.8333 177.554 26.1833 177.554 26.65ZM200.75 27.5C200.75 26.8 200.5 26.45 200 26.45C199 26.45 197.816 27.3833 196.45 29.25C195.083 31.0833 193.816 33.7167 192.65 37.15C192.583 37.35 192.3 37.55 191.8 37.75C191.333 37.9167 190.883 38 190.45 38C190.05 38 189.9 37.85 190 37.55C190.2 36.95 190.466 36.2 190.8 35.3C191.166 34.4 191.5 33.4833 191.8 32.55C192.133 31.5833 192.416 30.6833 192.65 29.85C192.883 28.9833 193 28.3167 193 27.85C193 26.95 192.716 26.5 192.15 26.5C191.283 26.5 190.183 27.4 188.85 29.2C187.55 30.9667 186.283 33.6167 185.05 37.15C184.983 37.35 184.716 37.55 184.25 37.75C183.783 37.9167 183.366 38 183 38C182.833 38 182.7 37.9667 182.6 37.9C182.5 37.8333 182.483 37.7167 182.55 37.55C182.816 36.8167 183.1 36.0167 183.4 35.15C183.7 34.25 184 33.35 184.3 32.45C184.6 31.55 184.866 30.6667 185.1 29.8C185.366 28.9333 185.6 28.1167 185.8 27.35C185.9 26.75 185.8 26.45 185.5 26.45C185.233 26.45 184.916 26.6333 184.55 27C184.183 27.3667 183.816 27.8 183.45 28.3C183.35 28.3667 183.25 28.3667 183.15 28.3C183.05 28.2 183.033 28.1 183.1 28C183.6 27.2333 184.2 26.5833 184.9 26.05C185.6 25.4833 186.35 25.2 187.15 25.2C187.683 25.2 188.033 25.3667 188.2 25.7C188.4 26.0333 188.45 26.4333 188.35 26.9C188.216 27.6333 188.083 28.25 187.95 28.75C187.816 29.25 187.633 29.8167 187.4 30.45C188.266 28.9167 189.216 27.6667 190.25 26.7C191.316 25.7 192.45 25.2 193.65 25.2C194.25 25.2 194.7 25.3667 195 25.7C195.333 26.0333 195.5 26.4333 195.5 26.9C195.5 28.2 195.266 29.5167 194.8 30.85C195.866 29.0167 196.9 27.6167 197.9 26.65C198.933 25.6833 200.166 25.2 201.6 25.2C202.266 25.2 202.733 25.3833 203 25.75C203.3 26.0833 203.45 26.4333 203.45 26.8C203.45 27.3667 203.316 28 203.05 28.7C202.816 29.3667 202.533 30.0833 202.2 30.85C201.9 31.5833 201.616 32.3333 201.35 33.1C201.116 33.8333 201 34.55 201 35.25C201 36.0833 201.266 36.5 201.8 36.5C202.333 36.5 203.05 35.95 203.95 34.85C204.05 34.7833 204.133 34.8 204.2 34.9C204.3 35 204.316 35.1167 204.25 35.25C203.583 36.0833 202.9 36.75 202.2 37.25C201.5 37.75 200.816 38 200.15 38C199.05 38 198.5 37.3667 198.5 36.1C198.5 35.3 198.616 34.5 198.85 33.7C199.083 32.8667 199.333 32.0833 199.6 31.35C199.9 30.5833 200.166 29.8667 200.4 29.2C200.633 28.5333 200.75 27.9667 200.75 27.5ZM219.645 34.85C219.712 34.7833 219.795 34.7833 219.895 34.85C219.995 34.9167 220.029 35.0167 219.995 35.15C219.395 36.0167 218.729 36.7167 217.995 37.25C217.262 37.75 216.562 38 215.895 38C215.129 38 214.629 37.4667 214.395 36.4C214.195 35.3 214.312 34 214.745 32.5C213.845 33.9333 212.862 35.1667 211.795 36.2C210.762 37.2 209.662 37.8 208.495 38C207.695 38 207.079 37.6333 206.645 36.9C206.212 36.1667 205.995 35.3167 205.995 34.35C205.995 33.25 206.262 32.1667 206.795 31.1C207.329 30 208.029 29.0167 208.895 28.15C209.795 27.2833 210.779 26.5833 211.845 26.05C212.945 25.4833 214.045 25.2 215.145 25.2C216.312 25.2 217.229 25.4833 217.895 26.05C218.229 25.8167 218.645 25.6167 219.145 25.45C219.679 25.2833 220.145 25.2 220.545 25.2C220.679 25.2 220.745 25.2833 220.745 25.45C219.979 26.3833 219.312 27.4167 218.745 28.55C218.212 29.65 217.795 30.7167 217.495 31.75C217.195 32.75 217.012 33.65 216.945 34.45C216.879 35.25 216.945 35.8 217.145 36.1C217.312 36.3 217.595 36.3667 217.995 36.3C218.395 36.2 218.945 35.7167 219.645 34.85ZM210.045 36.15C210.445 36.15 210.929 35.9 211.495 35.4C212.095 34.9 212.712 34.2333 213.345 33.4C213.979 32.5667 214.595 31.6333 215.195 30.6C215.829 29.5667 216.379 28.5167 216.845 27.45C216.712 27.0167 216.395 26.6667 215.895 26.4C215.429 26.1333 214.879 26 214.245 26C213.479 26 212.762 26.2 212.095 26.6C211.429 26.9667 210.845 27.5 210.345 28.2C209.879 28.8667 209.495 29.6833 209.195 30.65C208.929 31.5833 208.795 32.6167 208.795 33.75C208.795 34.4833 208.912 35.0667 209.145 35.5C209.412 35.9333 209.712 36.15 210.045 36.15Z" fill="#348C6C"/>
<path d="M8.41113 45.7646H5V55H4.15918V45.7646H0.754883V45.0469H8.41113V45.7646ZM16.5637 55.1367C15.9348 55.1367 15.3651 54.9818 14.8547 54.6719C14.3488 54.362 13.9546 53.9313 13.6721 53.3799C13.3895 52.8239 13.2482 52.2018 13.2482 51.5137V51.2197C13.2482 50.5088 13.385 49.8685 13.6584 49.2988C13.9364 48.7292 14.3215 48.2826 14.8137 47.959C15.3059 47.6309 15.8391 47.4668 16.4133 47.4668C17.3111 47.4668 18.022 47.7744 18.5461 48.3896C19.0747 49.0003 19.3391 49.8366 19.3391 50.8984V51.3564H14.0617V51.5137C14.0617 52.3522 14.301 53.0518 14.7795 53.6123C15.2626 54.1683 15.8687 54.4463 16.5979 54.4463C17.0354 54.4463 17.4204 54.3665 17.7531 54.207C18.0904 54.0475 18.3957 53.7923 18.6691 53.4414L19.1818 53.8311C18.5803 54.7015 17.7076 55.1367 16.5637 55.1367ZM16.4133 48.1641C15.798 48.1641 15.2785 48.3896 14.8547 48.8408C14.4354 49.292 14.1802 49.8981 14.0891 50.6592H18.5256V50.5703C18.5028 49.8594 18.3 49.2806 17.9172 48.834C17.5344 48.3874 17.0331 48.1641 16.4133 48.1641ZM28.8998 48.3008C28.7266 48.2689 28.5421 48.2529 28.3461 48.2529C27.8357 48.2529 27.4027 48.3965 27.0473 48.6836C26.6964 48.9661 26.4457 49.3786 26.2953 49.9209V55H25.4818V47.6035H26.2816L26.2953 48.7793C26.7283 47.9043 27.4232 47.4668 28.3803 47.4668C28.6081 47.4668 28.7882 47.4964 28.9203 47.5557L28.8998 48.3008ZM39.1441 55C39.0621 54.7676 39.0097 54.4235 38.9869 53.9678C38.6998 54.3415 38.3329 54.6309 37.8863 54.8359C37.4443 55.0365 36.9749 55.1367 36.4781 55.1367C35.7672 55.1367 35.1907 54.9385 34.7486 54.542C34.3111 54.1455 34.0924 53.6442 34.0924 53.0381C34.0924 52.318 34.3909 51.7484 34.9879 51.3291C35.5895 50.9098 36.4257 50.7002 37.4967 50.7002H38.9801V49.8594C38.9801 49.3307 38.816 48.916 38.4879 48.6152C38.1643 48.3099 37.6904 48.1572 37.066 48.1572C36.4964 48.1572 36.0247 48.3031 35.651 48.5947C35.2773 48.8864 35.0904 49.2373 35.0904 49.6475L34.2701 49.6406C34.2701 49.0527 34.5436 48.5446 35.0904 48.1162C35.6373 47.6833 36.3095 47.4668 37.107 47.4668C37.9319 47.4668 38.5813 47.6742 39.0553 48.0889C39.5338 48.499 39.7799 49.0732 39.7936 49.8115V53.3115C39.7936 54.027 39.8688 54.5625 40.0191 54.918V55H39.1441ZM36.5738 54.4121C37.1207 54.4121 37.6083 54.2799 38.0367 54.0156C38.4697 53.7513 38.7841 53.3981 38.9801 52.9561V51.3291H37.5172C36.7014 51.3382 36.0634 51.4886 35.6031 51.7803C35.1428 52.0674 34.9127 52.4639 34.9127 52.9697C34.9127 53.3844 35.0654 53.7285 35.3707 54.002C35.6806 54.2754 36.0816 54.4121 36.5738 54.4121ZM52.4783 51.377C52.4783 52.5299 52.2231 53.446 51.7127 54.125C51.2023 54.7995 50.5187 55.1367 49.6619 55.1367C48.6502 55.1367 47.8755 54.7812 47.3377 54.0703V57.8438H46.5242V47.6035H47.283L47.324 48.6494C47.8572 47.861 48.6297 47.4668 49.6414 47.4668C50.5255 47.4668 51.2182 47.8018 51.7195 48.4717C52.2254 49.1416 52.4783 50.0713 52.4783 51.2607V51.377ZM51.658 51.2334C51.658 50.29 51.4643 49.5449 51.077 48.998C50.6896 48.4512 50.1495 48.1777 49.4568 48.1777C48.9555 48.1777 48.5249 48.2985 48.1648 48.54C47.8048 48.7816 47.5291 49.1325 47.3377 49.5928V53.1406C47.5337 53.5645 47.8139 53.888 48.1785 54.1113C48.5431 54.3346 48.9738 54.4463 49.4705 54.4463C50.1587 54.4463 50.6941 54.1729 51.077 53.626C51.4643 53.0745 51.658 52.277 51.658 51.2334ZM59.7627 55H58.9424V47.6035H59.7627V55ZM58.7988 45.4639C58.7988 45.3089 58.849 45.179 58.9492 45.0742C59.0495 44.9648 59.1862 44.9102 59.3594 44.9102C59.5326 44.9102 59.6693 44.9648 59.7695 45.0742C59.8743 45.179 59.9268 45.3089 59.9268 45.4639C59.9268 45.6188 59.8743 45.7487 59.7695 45.8535C59.6693 45.9583 59.5326 46.0107 59.3594 46.0107C59.1862 46.0107 59.0495 45.9583 58.9492 45.8535C58.849 45.7487 58.7988 45.6188 58.7988 45.4639ZM71.2102 55C71.1281 54.7676 71.0757 54.4235 71.0529 53.9678C70.7658 54.3415 70.399 54.6309 69.9523 54.8359C69.5103 55.0365 69.0409 55.1367 68.5441 55.1367C67.8332 55.1367 67.2567 54.9385 66.8147 54.542C66.3772 54.1455 66.1584 53.6442 66.1584 53.0381C66.1584 52.318 66.4569 51.7484 67.0539 51.3291C67.6555 50.9098 68.4917 50.7002 69.5627 50.7002H71.0461V49.8594C71.0461 49.3307 70.882 48.916 70.5539 48.6152C70.2303 48.3099 69.7564 48.1572 69.132 48.1572C68.5624 48.1572 68.0907 48.3031 67.717 48.5947C67.3433 48.8864 67.1564 49.2373 67.1564 49.6475L66.3361 49.6406C66.3361 49.0527 66.6096 48.5446 67.1564 48.1162C67.7033 47.6833 68.3755 47.4668 69.173 47.4668C69.9979 47.4668 70.6473 47.6742 71.1213 48.0889C71.5998 48.499 71.8459 49.0732 71.8596 49.8115V53.3115C71.8596 54.027 71.9348 54.5625 72.0852 54.918V55H71.2102ZM68.6398 54.4121C69.1867 54.4121 69.6744 54.2799 70.1027 54.0156C70.5357 53.7513 70.8501 53.3981 71.0461 52.9561V51.3291H69.5832C68.7675 51.3382 68.1294 51.4886 67.6691 51.7803C67.2089 52.0674 66.9787 52.4639 66.9787 52.9697C66.9787 53.3844 67.1314 53.7285 67.4367 54.002C67.7466 54.2754 68.1477 54.4121 68.6398 54.4121ZM83.0268 53.1201C83.0268 52.7145 82.8627 52.3887 82.5346 52.1426C82.211 51.8965 81.7211 51.7051 81.0648 51.5684C80.4086 51.4271 79.8982 51.2676 79.5336 51.0898C79.1736 50.9076 78.9047 50.6865 78.727 50.4268C78.5538 50.167 78.4672 49.8525 78.4672 49.4834C78.4672 48.9001 78.711 48.4193 79.1986 48.041C79.6863 47.6582 80.3106 47.4668 81.0717 47.4668C81.8965 47.4668 82.5574 47.6719 83.0541 48.082C83.5554 48.4876 83.8061 49.0186 83.8061 49.6748H82.9857C82.9857 49.2419 82.8034 48.8818 82.4389 48.5947C82.0788 48.3076 81.6231 48.1641 81.0717 48.1641C80.5339 48.1641 80.101 48.2848 79.7729 48.5264C79.4493 48.7633 79.2875 49.0732 79.2875 49.4561C79.2875 49.8252 79.4219 50.1123 79.6908 50.3174C79.9643 50.5179 80.4587 50.7025 81.1742 50.8711C81.8943 51.0397 82.432 51.2197 82.7875 51.4111C83.1475 51.6025 83.4141 51.8327 83.5873 52.1016C83.7605 52.3704 83.8471 52.6963 83.8471 53.0791C83.8471 53.7035 83.5941 54.2025 83.0883 54.5762C82.587 54.9499 81.9307 55.1367 81.1195 55.1367C80.2582 55.1367 79.5587 54.9294 79.0209 54.5146C78.4877 54.0954 78.2211 53.5667 78.2211 52.9287H79.0414C79.0733 53.4072 79.2738 53.7809 79.643 54.0498C80.0167 54.3141 80.5089 54.4463 81.1195 54.4463C81.6892 54.4463 82.1495 54.321 82.5004 54.0703C82.8513 53.8197 83.0268 53.5029 83.0268 53.1201ZM103.762 52.2109H99.243L98.2176 55H97.3357L101.102 45.0469H101.902L105.669 55H104.794L103.762 52.2109ZM99.5027 51.4932H103.495L101.499 46.0723L99.5027 51.4932ZM112.413 55H111.593V44.5H112.413V55ZM120.463 45.71V47.6035H121.994V48.2734H120.463V53.2021C120.463 53.6123 120.536 53.9176 120.682 54.1182C120.832 54.3187 121.081 54.4189 121.427 54.4189C121.564 54.4189 121.785 54.3962 122.09 54.3506L122.124 55.0205C121.91 55.098 121.618 55.1367 121.249 55.1367C120.689 55.1367 120.281 54.9749 120.026 54.6514C119.77 54.3232 119.643 53.8424 119.643 53.209V48.2734H118.282V47.6035H119.643V45.71H120.463ZM131.104 55.1367C130.475 55.1367 129.905 54.9818 129.395 54.6719C128.889 54.362 128.495 53.9313 128.212 53.3799C127.93 52.8239 127.788 52.2018 127.788 51.5137V51.2197C127.788 50.5088 127.925 49.8685 128.199 49.2988C128.477 48.7292 128.862 48.2826 129.354 47.959C129.846 47.6309 130.379 47.4668 130.954 47.4668C131.851 47.4668 132.562 47.7744 133.086 48.3896C133.615 49.0003 133.879 49.8366 133.879 50.8984V51.3564H128.602V51.5137C128.602 52.3522 128.841 53.0518 129.32 53.6123C129.803 54.1683 130.409 54.4463 131.138 54.4463C131.576 54.4463 131.961 54.3665 132.293 54.207C132.631 54.0475 132.936 53.7923 133.209 53.4414L133.722 53.8311C133.121 54.7015 132.248 55.1367 131.104 55.1367ZM130.954 48.1641C130.338 48.1641 129.819 48.3896 129.395 48.8408C128.976 49.292 128.72 49.8981 128.629 50.6592H133.066V50.5703C133.043 49.8594 132.84 49.2806 132.457 48.834C132.075 48.3874 131.573 48.1641 130.954 48.1641ZM143.44 48.3008C143.267 48.2689 143.082 48.2529 142.886 48.2529C142.376 48.2529 141.943 48.3965 141.588 48.6836C141.237 48.9661 140.986 49.3786 140.836 49.9209V55H140.022V47.6035H140.822L140.836 48.7793C141.268 47.9043 141.963 47.4668 142.921 47.4668C143.148 47.4668 143.328 47.4964 143.461 47.5557L143.44 48.3008ZM150.068 47.6035L150.096 48.8682C150.373 48.4124 150.72 48.0661 151.135 47.8291C151.549 47.5876 152.007 47.4668 152.509 47.4668C153.302 47.4668 153.892 47.6901 154.279 48.1367C154.666 48.5833 154.862 49.2533 154.867 50.1465V55H154.054V50.1396C154.049 49.4788 153.908 48.9867 153.63 48.6631C153.356 48.3395 152.916 48.1777 152.31 48.1777C151.804 48.1777 151.356 48.3372 150.964 48.6562C150.576 48.9707 150.289 49.3968 150.102 49.9346V55H149.289V47.6035H150.068ZM166.205 55C166.123 54.7676 166.071 54.4235 166.048 53.9678C165.761 54.3415 165.394 54.6309 164.947 54.8359C164.505 55.0365 164.036 55.1367 163.539 55.1367C162.828 55.1367 162.252 54.9385 161.81 54.542C161.372 54.1455 161.153 53.6442 161.153 53.0381C161.153 52.318 161.452 51.7484 162.049 51.3291C162.65 50.9098 163.487 50.7002 164.558 50.7002H166.041V49.8594C166.041 49.3307 165.877 48.916 165.549 48.6152C165.225 48.3099 164.751 48.1572 164.127 48.1572C163.557 48.1572 163.086 48.3031 162.712 48.5947C162.338 48.8864 162.151 49.2373 162.151 49.6475L161.331 49.6406C161.331 49.0527 161.604 48.5446 162.151 48.1162C162.698 47.6833 163.37 47.4668 164.168 47.4668C164.993 47.4668 165.642 47.6742 166.116 48.0889C166.595 48.499 166.841 49.0732 166.854 49.8115V53.3115C166.854 54.027 166.93 54.5625 167.08 54.918V55H166.205ZM163.635 54.4121C164.182 54.4121 164.669 54.2799 165.098 54.0156C165.531 53.7513 165.845 53.3981 166.041 52.9561V51.3291H164.578C163.762 51.3382 163.124 51.4886 162.664 51.7803C162.204 52.0674 161.974 52.4639 161.974 52.9697C161.974 53.3844 162.126 53.7285 162.432 54.002C162.742 54.2754 163.143 54.4121 163.635 54.4121ZM174.863 45.71V47.6035H176.395V48.2734H174.863V53.2021C174.863 53.6123 174.936 53.9176 175.082 54.1182C175.233 54.3187 175.481 54.4189 175.827 54.4189C175.964 54.4189 176.185 54.3962 176.49 54.3506L176.525 55.0205C176.31 55.098 176.019 55.1367 175.65 55.1367C175.089 55.1367 174.681 54.9749 174.426 54.6514C174.171 54.3232 174.043 53.8424 174.043 53.209V48.2734H172.683V47.6035H174.043V45.71H174.863ZM183.556 55H182.736V47.6035H183.556V55ZM182.592 45.4639C182.592 45.3089 182.642 45.179 182.743 45.0742C182.843 44.9648 182.98 44.9102 183.153 44.9102C183.326 44.9102 183.463 44.9648 183.563 45.0742C183.668 45.179 183.72 45.3089 183.72 45.4639C183.72 45.6188 183.668 45.7487 183.563 45.8535C183.463 45.9583 183.326 46.0107 183.153 46.0107C182.98 46.0107 182.843 45.9583 182.743 45.8535C182.642 45.7487 182.592 45.6188 182.592 45.4639ZM192.638 53.8721L194.887 47.6035H195.728L192.966 55H192.303L189.528 47.6035H190.369L192.638 53.8721ZM206.184 55C206.102 54.7676 206.05 54.4235 206.027 53.9678C205.74 54.3415 205.373 54.6309 204.927 54.8359C204.485 55.0365 204.015 55.1367 203.518 55.1367C202.807 55.1367 202.231 54.9385 201.789 54.542C201.351 54.1455 201.133 53.6442 201.133 53.0381C201.133 52.318 201.431 51.7484 202.028 51.3291C202.63 50.9098 203.466 50.7002 204.537 50.7002H206.02V49.8594C206.02 49.3307 205.856 48.916 205.528 48.6152C205.205 48.3099 204.731 48.1572 204.106 48.1572C203.537 48.1572 203.065 48.3031 202.691 48.5947C202.318 48.8864 202.131 49.2373 202.131 49.6475L201.31 49.6406C201.31 49.0527 201.584 48.5446 202.131 48.1162C202.678 47.6833 203.35 47.4668 204.147 47.4668C204.972 47.4668 205.622 47.6742 206.096 48.0889C206.574 48.499 206.82 49.0732 206.834 49.8115V53.3115C206.834 54.027 206.909 54.5625 207.059 54.918V55H206.184ZM203.614 54.4121C204.161 54.4121 204.649 54.2799 205.077 54.0156C205.51 53.7513 205.824 53.3981 206.02 52.9561V51.3291H204.557C203.742 51.3382 203.104 51.4886 202.643 51.7803C202.183 52.0674 201.953 52.4639 201.953 52.9697C201.953 53.3844 202.106 53.7285 202.411 54.002C202.721 54.2754 203.122 54.4121 203.614 54.4121ZM218.001 53.1201C218.001 52.7145 217.837 52.3887 217.509 52.1426C217.185 51.8965 216.695 51.7051 216.039 51.5684C215.383 51.4271 214.872 51.2676 214.508 51.0898C214.148 50.9076 213.879 50.6865 213.701 50.4268C213.528 50.167 213.441 49.8525 213.441 49.4834C213.441 48.9001 213.685 48.4193 214.173 48.041C214.66 47.6582 215.285 47.4668 216.046 47.4668C216.871 47.4668 217.532 47.6719 218.028 48.082C218.53 48.4876 218.78 49.0186 218.78 49.6748H217.96C217.96 49.2419 217.778 48.8818 217.413 48.5947C217.053 48.3076 216.597 48.1641 216.046 48.1641C215.508 48.1641 215.075 48.2848 214.747 48.5264C214.424 48.7633 214.262 49.0732 214.262 49.4561C214.262 49.8252 214.396 50.1123 214.665 50.3174C214.938 50.5179 215.433 50.7025 216.148 50.8711C216.868 51.0397 217.406 51.2197 217.762 51.4111C218.122 51.6025 218.388 51.8327 218.562 52.1016C218.735 52.3704 218.821 52.6963 218.821 53.0791C218.821 53.7035 218.568 54.2025 218.062 54.5762C217.561 54.9499 216.905 55.1367 216.094 55.1367C215.232 55.1367 214.533 54.9294 213.995 54.5146C213.462 54.0954 213.195 53.5667 213.195 52.9287H214.016C214.048 53.4072 214.248 53.7809 214.617 54.0498C214.991 54.3141 215.483 54.4463 216.094 54.4463C216.663 54.4463 217.124 54.321 217.475 54.0703C217.826 53.8197 218.001 53.5029 218.001 53.1201Z" fill="#212121"/>
</svg>
